<svg width="41" height="40" viewBox="0 0 41 40" fill="none" xmlns="http://www.w3.org/2000/svg">
<mask id="mask0_493_9217" style="mask-type:alpha" maskUnits="userSpaceOnUse" x="0" y="0" width="41" height="40">
<rect x="1.63721" y="1.5" width="37" height="37" fill="white" stroke="#FF9900" stroke-width="3"/>
</mask>
<g mask="url(#mask0_493_9217)">
<path d="M20.1372 19.8842C20.6682 19.1744 21.3456 18.587 22.1235 18.162C22.9014 17.737 23.7616 17.4843 24.6458 17.421C25.5299 17.3577 26.4174 17.4852 27.2479 17.795C28.0785 18.1048 28.8326 18.5897 29.4593 19.2166L33.1684 22.9256C34.2945 24.0915 34.9175 25.6531 34.9035 27.2739C34.8894 28.8948 34.2392 30.4452 33.0931 31.5914C31.9469 32.7375 30.3965 33.3877 28.7756 33.4017C27.1548 33.4158 25.5933 32.7927 24.4274 31.6667L22.3008 29.5525" stroke="#FF9900" stroke-width="3" stroke-linecap="round" stroke-linejoin="round"/>
<path d="M20.1371 19.8841C19.6061 20.594 18.9287 21.1813 18.1508 21.6063C17.3729 22.0313 16.5127 22.284 15.6285 22.3474C14.7444 22.4107 13.8569 22.2831 13.0264 21.9733C12.1959 21.6635 11.4417 21.1787 10.815 20.5518L7.1059 16.8427C5.97984 15.6768 5.35675 14.1153 5.37084 12.4944C5.38492 10.8736 6.03505 9.32311 7.18121 8.17696C8.32736 7.03081 9.87783 6.38068 11.4987 6.36659C13.1195 6.35251 14.681 6.9756 15.8469 8.10166L17.9611 10.2158" stroke="#FF9900" stroke-width="3" stroke-linecap="round" stroke-linejoin="round"/>
<path d="M16.6404 16.3873L23.6343 23.3812" stroke="#FF9900" stroke-width="3" stroke-linecap="round" stroke-linejoin="round"/>
</g>
</svg>
