<svg width="29" height="29" viewBox="0 0 29 29" fill="none" xmlns="http://www.w3.org/2000/svg">
<path d="M14.4644 3.83618C10.6027 3.83618 7.46435 6.97451 7.46435 10.8362V14.2078C7.46435 14.9195 7.16102 16.0045 6.79935 16.6112L5.45769 18.8395C4.62935 20.2162 5.20102 21.7445 6.71769 22.2578C11.746 23.9378 17.171 23.9378 22.1994 22.2578C23.611 21.7912 24.2294 20.1228 23.4594 18.8395L22.1177 16.6112C21.7677 16.0045 21.4644 14.9195 21.4644 14.2078V10.8362C21.4644 6.98618 18.3144 3.83618 14.4644 3.83618Z" stroke="#212121" stroke-width="2" stroke-miterlimit="10" stroke-linecap="round"/>
<path d="M16.6227 4.17447C16.261 4.06947 15.8877 3.9878 15.5027 3.94113C14.3827 3.80113 13.3094 3.8828 12.306 4.17447C12.6444 3.31113 13.4844 2.70447 14.4644 2.70447C15.4444 2.70447 16.2844 3.31113 16.6227 4.17447Z" stroke="#212121" stroke-width="2" stroke-miterlimit="10" stroke-linecap="round" stroke-linejoin="round"/>
<path d="M17.9644 22.6779C17.9644 24.6029 16.3894 26.1779 14.4644 26.1779C13.5077 26.1779 12.621 25.7812 11.991 25.1512C11.361 24.5212 10.9644 23.6345 10.9644 22.6779" stroke="#212121" stroke-width="2" stroke-miterlimit="10"/>
</svg>
