<svg width="281" height="281" viewBox="0 0 281 281" fill="none" xmlns="http://www.w3.org/2000/svg">
<circle cx="140.5" cy="140.208" r="140" fill="#FFE8BC"/>
<mask id="mask0_758_12048" style="mask-type:alpha" maskUnits="userSpaceOnUse" x="0" y="0" width="281" height="281">
<circle cx="140.5" cy="140.208" r="140" fill="#FFE8BC"/>
</mask>
<g mask="url(#mask0_758_12048)">
<g clip-path="url(#clip0_758_12048)">
<path d="M124.497 161.367C122.142 161.364 119.834 162.019 117.83 163.256C115.826 164.493 114.207 166.265 113.154 168.371C105.795 183.09 90.0061 199.899 78.8847 208.233C77.554 209.232 76.433 210.483 75.5856 211.914C74.7383 213.346 74.1813 214.931 73.9463 216.578C73.7114 218.225 73.8031 219.902 74.2163 221.513C74.6295 223.125 75.3561 224.639 76.3546 225.97C77.353 227.301 78.6038 228.422 80.0355 229.269C81.4672 230.116 83.0518 230.673 84.6988 230.908C86.3458 231.143 88.0229 231.052 89.6345 230.638C91.246 230.225 92.7603 229.498 94.0911 228.5C107.435 218.487 126.188 198.942 135.821 179.695C136.788 177.765 137.245 175.619 137.149 173.463C137.052 171.306 136.406 169.209 135.271 167.373C134.137 165.536 132.551 164.02 130.665 162.969C128.78 161.918 126.656 161.366 124.497 161.367Z" fill="#FFC56D"/>
<path d="M93.3943 227.272C105.979 219.672 123.351 202.774 135.796 179.778C137.006 177.359 137.411 174.617 136.952 171.952C136.493 169.287 135.193 166.838 133.244 164.964C123.756 177.156 111.299 191.203 97.1753 185.516C98.1507 182.976 98.8093 182.318 104.332 172.032C110.178 160.265 111.539 145.445 108.924 132.74C96.9917 152.247 81.2533 149.555 76.6807 215.384C80.848 229.488 88.201 231.559 93.3943 227.272Z" fill="#E98D04"/>
<path d="M162.497 148.7C160.307 148.699 158.154 149.265 156.248 150.344C154.342 151.423 152.749 152.978 151.623 154.856C138.266 177.118 123.731 191.583 91.792 214.396C89.1888 216.397 87.4639 219.331 86.9808 222.578C86.4976 225.826 87.2939 229.135 89.2019 231.807C91.1099 234.479 93.9806 236.307 97.2093 236.904C100.438 237.502 103.773 236.823 106.511 235.011C141.262 210.191 158.127 193.255 173.346 167.884C174.499 165.963 175.122 163.77 175.15 161.53C175.179 159.29 174.613 157.082 173.51 155.131C172.408 153.181 170.807 151.559 168.872 150.429C166.938 149.299 164.738 148.702 162.497 148.7Z" fill="#FFC56D"/>
<path d="M173.365 167.889C175.052 165.044 175.565 161.656 174.797 158.439C160.768 173.975 143.51 201.753 111.786 191.525C104.687 191.373 98.6765 194.368 95.8392 199.144C93.5212 203.032 94.7118 207.922 99.5632 215.503C141.046 215.028 159.704 198.662 173.365 167.889Z" fill="#E98D04"/>
<path d="M203.791 151.867C200.548 151.867 197.312 153.102 194.835 155.578C177.368 173.039 157.652 189.164 126.765 211.229C124.09 213.203 122.298 216.15 121.777 219.434C121.256 222.718 122.046 226.075 123.978 228.78C125.91 231.486 128.828 233.324 132.103 233.897C135.378 234.47 138.747 233.733 141.483 231.844C173.581 208.911 194.234 192.007 212.746 173.495C214.519 171.724 215.727 169.467 216.217 167.009C216.706 164.551 216.456 162.003 215.497 159.688C214.539 157.372 212.914 155.393 210.831 154.001C208.747 152.609 206.297 151.866 203.791 151.867Z" fill="#FFC56D"/>
<path d="M216.362 165.585C203.031 166.864 190.079 170.265 177.754 175.87L166.874 180.817C155.657 190.044 142.718 199.842 126.771 211.229C124.096 213.204 122.305 216.151 121.783 219.434C121.262 222.718 122.053 226.075 123.985 228.781C125.917 231.487 128.835 233.324 132.11 233.897C135.385 234.471 138.754 233.733 141.49 231.844C173.587 208.911 194.24 192.008 212.752 173.495C214.956 171.285 216.122 168.467 216.362 165.585Z" fill="#E98D04"/>
<path d="M238.485 188.182C238.485 180.607 232.341 174.47 224.767 174.47C208.762 174.47 192.942 177.897 178.375 184.521L160.179 192.793C150.93 196.997 140.905 199.225 130.746 199.335C120.587 199.445 110.516 197.435 101.178 193.432C99.3295 192.644 97.6691 191.472 96.306 189.995C94.9429 188.518 93.9081 186.77 93.2697 184.864C92.6313 182.958 92.4038 180.939 92.6021 178.939C92.8004 176.939 93.4201 175.004 94.4203 173.261L101.913 160.151C108.303 148.966 110.431 135.846 107.904 123.215C107.578 121.585 106.925 120.037 105.984 118.666C105.044 117.295 103.836 116.129 102.433 115.237C101.03 114.345 99.4611 113.747 97.8206 113.478C96.1802 113.208 94.5021 113.274 92.8877 113.67C90.7913 114.183 89.1953 115.919 88.6 117.99L83.318 136.47L48.4783 178.277C40.2525 188.148 29.1004 195.148 16.6343 198.265L14.5 198.797V261.414L21.3147 263.751C21.3147 263.751 63.121 247.981 71.2467 247.405L131.781 242.984C142.408 242.224 196.292 213.382 196.292 213.382C203.588 209.329 239.593 205.504 239.593 198.803C239.593 194.971 238.485 187.891 238.485 188.182Z" fill="#FFC56D"/>
<path d="M238.396 187.333C238.415 187.618 238.478 187.89 238.478 188.181C238.479 191.428 237.327 194.57 235.228 197.048C233.128 199.525 230.218 201.177 227.015 201.709L212.917 204.059C204.684 205.433 196.748 208.207 189.452 212.261L157.614 229.95C148.301 235.123 137.968 238.197 127.341 238.956L67.073 243.262C58.9521 243.845 50.9852 245.777 43.5003 248.981L14.5 261.414V272.054L47.5283 257.899C55.012 254.691 62.9795 252.758 71.101 252.18L131.369 247.873C141.996 247.114 152.328 244.04 161.642 238.867L193.48 221.178C200.776 217.124 208.712 214.35 216.945 212.976L231.043 210.627C233.536 210.209 235.864 209.11 237.772 207.452C239.679 205.794 241.091 203.641 241.852 201.231C242.613 198.821 242.693 196.247 242.083 193.795C241.473 191.342 240.197 189.106 238.396 187.333Z" fill="#E98D04"/>
</g>
</g>
<g filter="url(#filter0_d_758_12048)">
<rect x="150.5" y="56.2085" width="36" height="32" rx="3" fill="white"/>
<path d="M147.167 54.875H177.167C183.833 54.875 187.167 58.2083 187.167 64.875V69.475" stroke="#FF9900" stroke-width="4" stroke-miterlimit="10" stroke-linecap="round" stroke-linejoin="round"/>
<path d="M193.833 84.875V104.875C193.833 118.208 190.5 121.542 177.167 121.542H143.833C130.5 121.542 127.167 118.208 127.167 104.875V71.5417C127.167 58.2083 130.5 54.875 143.833 54.875H148.833C153.833 54.875 154.933 56.3417 156.833 58.875L161.833 65.5417C163.1 67.2083 163.833 68.2083 167.167 68.2083H177.167C190.5 68.2083 193.833 71.5417 193.833 84.875Z" fill="white" stroke="#FF9900" stroke-width="4" stroke-miterlimit="10"/>
<path d="M152.392 97.9189L160.992 105.452C161.392 105.819 162.025 105.819 162.425 105.452L171.025 97.9189C173.259 95.9523 173.559 92.6189 171.692 90.2856C169.825 87.9523 166.425 87.5189 164.059 89.3189L161.725 91.1189L159.359 89.3523C156.959 87.5523 153.592 87.9856 151.725 90.3189C149.859 92.6189 150.159 95.9856 152.392 97.9189Z" fill="white" stroke="#FF9900" stroke-width="4" stroke-linecap="round" stroke-linejoin="round"/>
</g>
<defs>
<filter id="filter0_d_758_12048" x="88.5" y="16.2085" width="160" height="160" filterUnits="userSpaceOnUse" color-interpolation-filters="sRGB">
<feFlood flood-opacity="0" result="BackgroundImageFix"/>
<feColorMatrix in="SourceAlpha" type="matrix" values="0 0 0 0 0 0 0 0 0 0 0 0 0 0 0 0 0 0 127 0" result="hardAlpha"/>
<feOffset dx="8" dy="8"/>
<feGaussianBlur stdDeviation="20"/>
<feComposite in2="hardAlpha" operator="out"/>
<feColorMatrix type="matrix" values="0 0 0 0 1 0 0 0 0 0.66 0 0 0 0 0 0 0 0 0.2 0"/>
<feBlend mode="normal" in2="BackgroundImageFix" result="effect1_dropShadow_758_12048"/>
<feBlend mode="normal" in="SourceGraphic" in2="effect1_dropShadow_758_12048" result="shape"/>
</filter>
<clipPath id="clip0_758_12048">
<rect width="228" height="228" fill="white" transform="translate(14.5 57.2085)"/>
</clipPath>
</defs>
</svg>
