<svg width="222" height="228" viewBox="0 0 222 228" fill="none" xmlns="http://www.w3.org/2000/svg">
<path d="M24.1631 100.238C24.1631 100.238 62.934 98.6854 71.3125 34.9543C78.7528 -21.645 144.131 4.11693 163.029 26.6788C187.51 55.9057 174.46 106.182 206.129 112.534C237.799 118.885 217.118 189.501 169.046 182.742C109.246 174.334 123.714 209.278 105.762 224.068C92.8786 234.683 40.0515 224.465 38.2908 185.931C36.8092 153.506 23.1315 153.609 13.4366 149.932C-0.545594 144.629 -9.35593 106.226 24.1631 100.238Z" fill="#FFE8BC"/>
<path d="M155.962 171.015L117.871 133.376L110.328 141.009L148.42 178.648L155.962 171.015Z" fill="#FFC56D"/>
<path d="M170.513 181.129L140.878 151.845C140.713 151.682 140.447 151.684 140.284 151.849L129.067 163.2C128.904 163.365 128.906 163.631 129.071 163.794L158.706 193.078C158.871 193.241 159.137 193.239 159.3 193.074L170.517 181.723C170.68 181.558 170.678 181.292 170.513 181.129Z" fill="#FF9900"/>
<path d="M84.1107 152.306C110.316 152.306 131.56 131.062 131.56 104.856C131.56 78.6506 110.316 57.4067 84.1107 57.4067C57.9051 57.4067 36.6613 78.6506 36.6613 104.856C36.6613 131.062 57.9051 152.306 84.1107 152.306Z" fill="#FF9900"/>
<path d="M84.1108 144.564C106.04 144.564 123.818 126.786 123.818 104.857C123.818 82.9269 106.04 65.1494 84.1108 65.1494C62.1811 65.1494 44.4036 82.9269 44.4036 104.857C44.4036 126.786 62.1811 144.564 84.1108 144.564Z" fill="#FFE8BC"/>
<path d="M164.33 61.9616C153.2 58.3539 141.172 64.4555 137.549 75.6313C133.942 86.7613 140.043 98.7894 151.219 102.412C162.395 106.034 174.392 99.8725 178 88.7419C181.608 77.6113 175.46 65.5691 164.33 61.9616ZM160.971 72.323C162.217 72.7268 163.315 73.4915 164.126 74.5202C164.936 75.5488 165.423 76.795 165.524 78.1007C165.626 79.4064 165.337 80.7128 164.695 81.8541C164.052 82.9955 163.086 83.9204 161.917 84.5116C160.749 85.1028 159.431 85.3336 158.131 85.1747C156.831 85.0159 155.607 84.4745 154.615 83.6193C153.624 82.7641 152.908 81.6336 152.56 80.3712C152.211 79.1088 152.246 77.7713 152.658 76.5284C153.773 73.0898 157.532 71.2084 160.971 72.323ZM152.568 98.249C148.87 97.0566 145.702 94.6157 143.606 91.3444C147.529 89.1157 151.63 88.4949 155.34 89.6975C159.05 90.9001 162.067 93.7778 163.877 97.9143C160.26 99.3341 156.262 99.4525 152.568 98.249Z" fill="#E98D04"/>
<path d="M71.6912 163.385C69.758 164.371 68.1608 165.909 67.1016 167.804C66.0424 169.698 65.5688 171.865 65.7406 174.028C65.9125 176.192 66.7221 178.256 68.0671 179.96C69.4121 181.663 71.2321 182.93 73.2968 183.599C75.3616 184.268 77.5785 184.31 79.667 183.719C81.7556 183.129 83.6222 181.932 85.0306 180.28C86.439 178.629 87.3261 176.597 87.5797 174.441C87.8332 172.286 87.4418 170.103 86.455 168.17C85.1294 165.58 82.8305 163.621 80.0627 162.724C77.2948 161.827 74.2841 162.065 71.6912 163.385ZM74.2473 168.392C74.8494 168.085 75.5293 167.963 76.2006 168.043C76.872 168.122 77.5045 168.399 78.0181 168.839C78.5317 169.279 78.9032 169.861 79.0854 170.512C79.2676 171.163 79.2523 171.853 79.0415 172.496C78.8307 173.138 78.4339 173.703 77.9013 174.12C77.3688 174.536 76.7246 174.785 76.0504 174.835C75.3762 174.885 74.7024 174.733 74.1145 174.4C73.5265 174.066 73.051 173.565 72.7481 172.961C72.3466 172.155 72.2789 171.224 72.5595 170.368C72.8402 169.513 73.4466 168.803 74.2473 168.392V168.392ZM80.6429 180.922C78.8581 181.837 76.8108 182.102 74.8518 181.673C75.4699 179.428 76.7403 177.705 78.5338 176.789C80.3274 175.874 82.4785 175.823 84.6486 176.673C83.8467 178.511 82.4306 180.013 80.6429 180.922V180.922Z" fill="#E98D04"/>
</svg>
