<svg width="214" height="212" viewBox="0 0 214 212" fill="none" xmlns="http://www.w3.org/2000/svg">
<path d="M53.4547 34.4177C53.4547 34.4177 85.6138 58.8214 134.504 13.1905C177.923 -27.334 213.375 36.6045 213.624 67.2234C213.946 106.888 170.204 138.623 191.431 164.675C212.659 190.727 149.335 233.747 115.206 196.516C72.7522 150.202 61.2505 187.832 37.0519 187.832C19.6842 187.832 -15.9735 144.678 8.10576 112.572C28.3681 85.556 17.3178 76.5897 11.9651 67.2234C4.24624 53.7152 22.5788 17.05 53.4547 34.4177Z" fill="#FFE8BC"/>
<path d="M105.487 89.9059V180.466L35.1744 150.096L35.5098 59.8633L105.487 89.9059Z" fill="#E98D04"/>
<path d="M105.488 89.9599V180.52L175.458 151.199V60.1523L105.488 89.9599Z" fill="#FFC56D"/>
<path d="M105.487 89.9063L175.799 60.456L106.039 29.5332L35.1744 59.7197L105.487 89.9063Z" fill="#FF9900"/>
<path d="M61.6796 48.4293L131.724 78.917L132.36 101.134L151.958 93.0479L151.365 70.6903L79.2486 40.9453L61.6796 48.4293Z" fill="#E98D04"/>
<path d="M127.735 122.452C128.845 122.452 129.745 120.809 129.745 118.783C129.745 116.757 128.845 115.114 127.735 115.114C126.625 115.114 125.725 116.757 125.725 118.783C125.725 120.809 126.625 122.452 127.735 122.452Z" fill="white"/>
<path d="M160.118 109.259C161.228 109.259 162.128 107.616 162.128 105.59C162.128 103.563 161.228 101.921 160.118 101.921C159.008 101.921 158.108 103.563 158.108 105.59C158.108 107.616 159.008 109.259 160.118 109.259Z" fill="white"/>
<path d="M139.383 141.821L138.078 141.314C140.97 133.869 144.596 129.767 148.857 129.123C152.933 128.507 156.366 131.315 157.611 132.885L156.514 133.755C155.653 132.669 152.636 129.968 149.066 130.507C145.39 131.063 142.042 134.975 139.383 141.821Z" fill="white"/>
</svg>
