<svg width="24" height="24" viewBox="0 0 24 24" fill="none" xmlns="http://www.w3.org/2000/svg">
<path d="M12.16 10.87C12.06 10.86 11.94 10.86 11.83 10.87C9.45003 10.79 7.56003 8.84 7.56003 6.44C7.56003 3.99 9.54003 2 12 2C14.45 2 16.44 3.99 16.44 6.44C16.43 8.84 14.54 10.79 12.16 10.87Z" stroke="white" stroke-linecap="round" stroke-linejoin="round"/>
<path d="M7.15994 14.56C4.73994 16.18 4.73994 18.82 7.15994 20.43C9.90994 22.27 14.4199 22.27 17.1699 20.43C19.5899 18.81 19.5899 16.17 17.1699 14.56C14.4299 12.73 9.91994 12.73 7.15994 14.56Z" stroke="white" stroke-linecap="round" stroke-linejoin="round"/>
</svg>
