<svg width="282" height="281" viewBox="0 0 282 281" fill="none" xmlns="http://www.w3.org/2000/svg">
<circle cx="141.5" cy="140.208" r="140" fill="#FFE8BC"/>
<rect x="49.5" y="33.2085" width="155.431" height="45.0896" rx="11.0896" fill="white"/>
<rect x="55.0448" y="38.7534" width="34" height="34" rx="6.65" fill="#FF9900"/>
<path d="M72.9281 54.8701C74.8031 56.7451 74.8031 59.7784 72.9281 61.6451C71.0531 63.5118 68.0198 63.5201 66.1531 61.6451C64.2865 59.7701 64.2781 56.7368 66.1531 54.8701" stroke="white" stroke-width="2" stroke-linecap="round" stroke-linejoin="round"/>
<path d="M70.8698 56.9283C68.9198 54.9783 68.9198 51.8117 70.8698 49.8533C72.8198 47.895 75.9865 47.9033 77.9448 49.8533C79.9032 51.8033 79.8948 54.97 77.9448 56.9283" stroke="white" stroke-width="2" stroke-linecap="round" stroke-linejoin="round"/>
<rect x="93.4806" y="43.5547" width="105.905" height="11.0896" rx="5.54479" fill="#E98D04"/>
<rect x="93.4806" y="56.8623" width="33.2687" height="11.0896" rx="5.54479" fill="#FFC56D"/>
<rect x="77.5" y="89.5669" width="155.431" height="45.0896" rx="11.0896" fill="white"/>
<rect x="83.0448" y="95.1113" width="34" height="34" rx="6.65" fill="#FF9900"/>
<path d="M100.928 111.228C102.803 113.103 102.803 116.136 100.928 118.003C99.0531 119.87 96.0198 119.878 94.1531 118.003C92.2865 116.128 92.2781 113.095 94.1531 111.228" stroke="white" stroke-width="2" stroke-linecap="round" stroke-linejoin="round"/>
<path d="M98.8698 113.286C96.9198 111.336 96.9198 108.17 98.8698 106.211C100.82 104.253 103.987 104.261 105.945 106.211C107.903 108.161 107.895 111.328 105.945 113.286" stroke="white" stroke-width="2" stroke-linecap="round" stroke-linejoin="round"/>
<rect x="121.481" y="99.9126" width="105.905" height="11.0896" rx="5.54479" fill="#E98D04"/>
<rect x="121.481" y="113.22" width="33.2687" height="11.0896" rx="5.54479" fill="#FFC56D"/>
<rect x="49.5" y="145.925" width="155.431" height="45.0896" rx="11.0896" fill="white"/>
<rect x="55.0448" y="151.47" width="34" height="34" rx="6.65" fill="#FF9900"/>
<path d="M72.9281 167.586C74.8031 169.461 74.8031 172.495 72.9281 174.361C71.0531 176.228 68.0198 176.236 66.1531 174.361C64.2865 172.486 64.2781 169.453 66.1531 167.586" stroke="white" stroke-width="2" stroke-linecap="round" stroke-linejoin="round"/>
<path d="M70.8698 169.645C68.9198 167.695 68.9198 164.528 70.8698 162.57C72.8198 160.611 75.9865 160.62 77.9448 162.57C79.9032 164.52 79.8948 167.686 77.9448 169.645" stroke="white" stroke-width="2" stroke-linecap="round" stroke-linejoin="round"/>
<rect x="93.4806" y="156.271" width="105.905" height="11.0896" rx="5.54479" fill="#E98D04"/>
<rect x="93.4806" y="169.579" width="33.2687" height="11.0896" rx="5.54479" fill="#FFC56D"/>
<rect x="77.5" y="202.284" width="155.431" height="45.0896" rx="11.0896" fill="white"/>
<rect x="83.0448" y="207.828" width="34" height="34" rx="6.65" fill="#FF9900"/>
<path d="M100.928 223.945C102.803 225.82 102.803 228.853 100.928 230.72C99.0531 232.586 96.0198 232.595 94.1531 230.72C92.2865 228.845 92.2781 225.811 94.1531 223.945" stroke="white" stroke-width="2" stroke-linecap="round" stroke-linejoin="round"/>
<path d="M98.8698 226.003C96.9198 224.053 96.9198 220.886 98.8698 218.928C100.82 216.97 103.987 216.978 105.945 218.928C107.903 220.878 107.895 224.045 105.945 226.003" stroke="white" stroke-width="2" stroke-linecap="round" stroke-linejoin="round"/>
<rect x="121.481" y="212.629" width="105.905" height="11.0896" rx="5.54479" fill="#E98D04"/>
<rect x="121.481" y="225.937" width="33.2687" height="11.0896" rx="5.54479" fill="#FFC56D"/>
</svg>
