<svg width="29" height="29" viewBox="0 0 29 29" fill="none" xmlns="http://www.w3.org/2000/svg">
<path d="M25.8406 17.1245L25.3739 22.9579C25.1989 24.7429 25.0589 26.1079 21.8972 26.1079H7.22056C4.05889 26.1079 3.91889 24.7429 3.74389 22.9579L3.27722 17.1245C3.18389 16.1562 3.48722 15.2579 4.03556 14.5695C4.04722 14.5579 4.04722 14.5579 4.05889 14.5462C4.70056 13.7645 5.66889 13.2745 6.75389 13.2745H22.3639C23.4489 13.2745 24.4056 13.7645 25.0356 14.5229C25.0472 14.5345 25.0589 14.5462 25.0589 14.5579C25.6306 15.2462 25.9456 16.1445 25.8406 17.1245Z" stroke="#212121" stroke-width="2" stroke-miterlimit="10"/>
<path d="M4.64221 13.7762V7.7679C4.64221 3.80124 5.63388 2.80957 9.60055 2.80957H11.0822C12.5639 2.80957 12.9022 3.2529 13.4622 3.99957L14.9439 5.9829C15.3172 6.4729 15.5389 6.77624 16.5305 6.77624H19.5055C23.4722 6.77624 24.4639 7.7679 24.4639 11.7346V13.8229" stroke="#212121" stroke-width="2" stroke-miterlimit="10" stroke-linecap="round" stroke-linejoin="round"/>
</svg>
