<svg width="400" height="267" viewBox="0 0 400 267" fill="none" xmlns="http://www.w3.org/2000/svg">
<rect width="400" height="267" fill="#E98D04"/>
<g filter="url(#filter0_d_831_24892)">
<rect x="133" y="67" width="133.137" height="133.137" rx="24" fill="#FF9900"/>
<path d="M199.569 133.568C200.631 132.149 201.985 130.974 203.541 130.124C205.097 129.274 206.817 128.769 208.586 128.642C210.354 128.515 212.129 128.77 213.79 129.39C215.451 130.01 216.959 130.979 218.213 132.233L225.631 139.651C227.883 141.983 229.129 145.106 229.101 148.348C229.073 151.59 227.773 154.69 225.48 156.983C223.188 159.275 220.087 160.575 216.845 160.603C213.604 160.632 210.481 159.385 208.149 157.133L203.896 152.905" fill="#FF9900"/>
<path d="M199.569 133.568C200.631 132.149 201.985 130.974 203.541 130.124C205.097 129.274 206.817 128.769 208.586 128.642C210.354 128.515 212.129 128.77 213.79 129.39C215.451 130.01 216.959 130.979 218.213 132.233L225.631 139.651C227.883 141.983 229.129 145.106 229.101 148.348C229.073 151.59 227.773 154.69 225.48 156.983C223.188 159.275 220.087 160.575 216.845 160.603C213.604 160.632 210.481 159.385 208.149 157.133L203.896 152.905" stroke="white" stroke-width="6" stroke-linecap="round" stroke-linejoin="round"/>
<path d="M199.568 133.568C198.507 134.988 197.152 136.163 195.596 137.013C194.04 137.863 192.32 138.368 190.551 138.495C188.783 138.622 187.008 138.366 185.347 137.747C183.686 137.127 182.178 136.158 180.924 134.904L173.506 127.486C171.254 125.154 170.008 122.031 170.036 118.789C170.064 115.547 171.364 112.446 173.657 110.154C175.949 107.862 179.05 106.562 182.292 106.533C185.533 106.505 188.656 107.751 190.988 110.003L195.217 114.232" fill="#FF9900"/>
<path d="M199.568 133.568C198.507 134.988 197.152 136.163 195.596 137.013C194.04 137.863 192.32 138.368 190.551 138.495C188.783 138.622 187.008 138.366 185.347 137.747C183.686 137.127 182.178 136.158 180.924 134.904L173.506 127.486C171.254 125.154 170.008 122.031 170.036 118.789C170.064 115.547 171.364 112.446 173.657 110.154C175.949 107.862 179.05 106.562 182.292 106.533C185.533 106.505 188.656 107.751 190.988 110.003L195.217 114.232" stroke="white" stroke-width="6" stroke-linecap="round" stroke-linejoin="round"/>
<path d="M192.575 126.575L206.563 140.562" stroke="white" stroke-width="6" stroke-linecap="round" stroke-linejoin="round"/>
</g>
<defs>
<filter id="filter0_d_831_24892" x="101" y="35" width="213.137" height="213.137" filterUnits="userSpaceOnUse" color-interpolation-filters="sRGB">
<feFlood flood-opacity="0" result="BackgroundImageFix"/>
<feColorMatrix in="SourceAlpha" type="matrix" values="0 0 0 0 0 0 0 0 0 0 0 0 0 0 0 0 0 0 127 0" result="hardAlpha"/>
<feOffset dx="8" dy="8"/>
<feGaussianBlur stdDeviation="20"/>
<feComposite in2="hardAlpha" operator="out"/>
<feColorMatrix type="matrix" values="0 0 0 0 0.188235 0 0 0 0 0.188235 0 0 0 0 0.188235 0 0 0 0.12 0"/>
<feBlend mode="normal" in2="BackgroundImageFix" result="effect1_dropShadow_831_24892"/>
<feBlend mode="normal" in="SourceGraphic" in2="effect1_dropShadow_831_24892" result="shape"/>
</filter>
</defs>
</svg>
