<svg width="29" height="29" viewBox="0 0 29 29" fill="none" xmlns="http://www.w3.org/2000/svg">
<path d="M14.6279 13.1227C14.5112 13.1111 14.3712 13.1111 14.2429 13.1227C11.4662 13.0294 9.26123 10.7544 9.26123 7.95441C9.26123 5.09608 11.5712 2.77441 14.4412 2.77441C17.2996 2.77441 19.6212 5.09608 19.6212 7.95441C19.6096 10.7544 17.4046 13.0294 14.6279 13.1227Z" stroke="#212121" stroke-width="2" stroke-linecap="round" stroke-linejoin="round"/>
<path d="M8.79438 17.4278C5.97105 19.3178 5.97105 22.3978 8.79438 24.2761C12.0027 26.4228 17.2644 26.4228 20.4727 24.2761C23.296 22.3861 23.296 19.3061 20.4727 17.4278C17.276 15.2928 12.0144 15.2928 8.79438 17.4278Z" stroke="#212121" stroke-width="2" stroke-linecap="round" stroke-linejoin="round"/>
</svg>
