<svg width="40" height="40" viewBox="0 0 40 40" fill="none" xmlns="http://www.w3.org/2000/svg">
<mask id="mask0_113_8980" style="mask-type:alpha" maskUnits="userSpaceOnUse" x="0" y="0" width="40" height="40">
<rect x="1.5" y="1.5" width="37" height="37" fill="white" stroke="#FFA800" stroke-width="3"/>
</mask>
<g mask="url(#mask0_113_8980)">
<path d="M20 19.8842C20.531 19.1744 21.2084 18.587 21.9863 18.162C22.7642 17.737 23.6244 17.4843 24.5086 17.421C25.3927 17.3577 26.2802 17.4852 27.1107 17.795C27.9412 18.1048 28.6954 18.5897 29.3221 19.2166L33.0312 22.9256C34.1573 24.0915 34.7803 25.6531 34.7663 27.2739C34.7522 28.8948 34.102 30.4452 32.9559 31.5914C31.8097 32.7375 30.2593 33.3877 28.6384 33.4017C27.0176 33.4158 25.4561 32.7927 24.2902 31.6667L22.1636 29.5525" fill="white"/>
<path d="M20 19.8842C20.531 19.1744 21.2084 18.587 21.9863 18.162C22.7642 17.737 23.6244 17.4843 24.5086 17.421C25.3927 17.3577 26.2802 17.4852 27.1107 17.795C27.9412 18.1048 28.6954 18.5897 29.3221 19.2166L33.0312 22.9256C34.1573 24.0915 34.7803 25.6531 34.7663 27.2739C34.7522 28.8948 34.102 30.4452 32.9559 31.5914C31.8097 32.7375 30.2593 33.3877 28.6384 33.4017C27.0176 33.4158 25.4561 32.7927 24.2902 31.6667L22.1636 29.5525" stroke="#FFA800" stroke-width="3" stroke-linecap="round" stroke-linejoin="round"/>
<path d="M20 19.8841C19.4691 20.594 18.7916 21.1813 18.0137 21.6063C17.2358 22.0313 16.3756 22.284 15.4915 22.3474C14.6073 22.4107 13.7198 22.2831 12.8893 21.9733C12.0588 21.6635 11.3046 21.1787 10.6779 20.5518L6.96882 16.8427C5.84276 15.6768 5.21967 14.1153 5.23375 12.4944C5.24784 10.8736 5.89797 9.32311 7.04412 8.17696C8.19027 7.03081 9.74074 6.38068 11.3616 6.36659C12.9824 6.35251 14.544 6.9756 15.7099 8.10166L17.824 10.2158" fill="white"/>
<path d="M20 19.8841C19.4691 20.594 18.7916 21.1813 18.0137 21.6063C17.2358 22.0313 16.3756 22.284 15.4915 22.3474C14.6073 22.4107 13.7198 22.2831 12.8893 21.9733C12.0588 21.6635 11.3046 21.1787 10.6779 20.5518L6.96882 16.8427C5.84276 15.6768 5.21967 14.1153 5.23375 12.4944C5.24784 10.8736 5.89797 9.32311 7.04412 8.17696C8.19027 7.03081 9.74074 6.38068 11.3616 6.36659C12.9824 6.35251 14.544 6.9756 15.7099 8.10166L17.824 10.2158" stroke="#FFA800" stroke-width="3" stroke-linecap="round" stroke-linejoin="round"/>
<path d="M16.5031 16.3873L23.4969 23.3812" stroke="#FFA800" stroke-width="3" stroke-linecap="round" stroke-linejoin="round"/>
</g>
</svg>
