<svg width="49" height="48" viewBox="0 0 49 48" fill="none" xmlns="http://www.w3.org/2000/svg">
<path d="M18.5 20C20.7091 20 22.5 18.2091 22.5 16C22.5 13.7909 20.7091 12 18.5 12C16.2909 12 14.5 13.7909 14.5 16C14.5 18.2091 16.2909 20 18.5 20Z" stroke="#212121" stroke-linecap="round" stroke-linejoin="round"/>
<path d="M26.5 4H18.5C8.5 4 4.5 8 4.5 18V30C4.5 40 8.5 44 18.5 44H30.5C40.5 44 44.5 40 44.5 30V20" stroke="#212121" stroke-linecap="round" stroke-linejoin="round"/>
<path d="M36.5 16V4L40.5 8" stroke="#212121" stroke-linecap="round" stroke-linejoin="round"/>
<path d="M36.5 4L32.5 8" stroke="#212121" stroke-linecap="round" stroke-linejoin="round"/>
<path d="M5.83984 37.9001L15.6998 31.2801C17.2798 30.2201 19.5598 30.3401 20.9798 31.5601L21.6398 32.1401C23.1998 33.4801 25.7198 33.4801 27.2798 32.1401L35.5998 25.0001C37.1598 23.6601 39.6798 23.6601 41.2398 25.0001L44.4998 27.8001" stroke="#212121" stroke-linecap="round" stroke-linejoin="round"/>
</svg>
