<svg width="29" height="29" viewBox="0 0 29 29" fill="none" xmlns="http://www.w3.org/2000/svg">
<path d="M14.6094 12.9227C14.5043 12.9109 14.3781 12.9109 14.2625 12.9227C11.761 12.828 9.77454 10.5197 9.77454 7.67865C9.77454 4.77842 11.8556 2.42273 14.4412 2.42273C17.0163 2.42273 19.1079 4.77842 19.1079 7.67865C19.0974 10.5197 17.1109 12.828 14.6094 12.9227Z" fill="#FF9900" stroke="#FF9900" stroke-width="2" stroke-linecap="round" stroke-linejoin="round"/>
<path d="M8.44792 15.9464C5.55007 18.1384 5.55007 21.7104 8.44792 23.8888C11.7409 26.3784 17.1415 26.3784 20.4345 23.8888C23.3323 21.6969 23.3323 18.1248 20.4345 15.9464C17.1534 13.4703 11.7529 13.4703 8.44792 15.9464Z" fill="#FF9900" stroke="#FF9900" stroke-width="2" stroke-linecap="round" stroke-linejoin="round"/>
</svg>
