<svg width="131" height="136" viewBox="0 0 131 136" fill="none" xmlns="http://www.w3.org/2000/svg">
<mask id="mask0_125_8877" style="mask-type:alpha" maskUnits="userSpaceOnUse" x="16" y="0" width="100" height="100">
<rect x="19" y="3" width="94" height="94" fill="white" stroke="#FFA800" stroke-width="6"/>
</mask>
<g mask="url(#mask0_125_8877)">
<path d="M66 49.7105C67.3274 47.9359 69.0209 46.4675 70.9657 45.405C72.9104 44.3425 75.061 43.7107 77.2714 43.5524C79.4818 43.3941 81.7004 43.713 83.7768 44.4875C85.8531 45.2621 87.7386 46.4741 89.3053 48.0414L98.578 57.314C101.393 60.2288 102.951 64.1326 102.916 68.1847C102.88 72.2368 101.255 76.113 98.3897 78.9784C95.5243 81.8438 91.6482 83.4691 87.5961 83.5043C83.544 83.5395 79.6401 81.9818 76.7254 79.1666L71.4091 73.8812" fill="white"/>
<path d="M66 49.7105C67.3274 47.9359 69.0209 46.4675 70.9657 45.405C72.9104 44.3425 75.061 43.7107 77.2714 43.5524C79.4818 43.3941 81.7004 43.713 83.7768 44.4875C85.8531 45.2621 87.7386 46.4741 89.3053 48.0414L98.578 57.314C101.393 60.2288 102.951 64.1326 102.916 68.1847C102.88 72.2368 101.255 76.113 98.3897 78.9784C95.5243 81.8438 91.6482 83.4691 87.5961 83.5043C83.544 83.5395 79.6401 81.9818 76.7254 79.1666L71.4091 73.8812" stroke="#FFA800" stroke-width="6" stroke-linecap="round" stroke-linejoin="round"/>
<path d="M66 49.7104C64.6726 51.485 62.9791 52.9533 61.0344 54.0158C59.0896 55.0783 56.9391 55.7102 54.7286 55.8685C52.5182 56.0268 50.2996 55.7079 48.2232 54.9333C46.1469 54.1588 44.2614 52.9468 42.6947 51.3795L33.422 42.1068C30.6069 39.1921 29.0492 35.2882 29.0844 31.2361C29.1196 27.184 30.7449 23.3078 33.6103 20.4425C36.4757 17.5771 40.3519 15.9518 44.404 15.9165C48.4561 15.8813 52.3599 17.4391 55.2746 20.2542L60.5601 25.5396" fill="white"/>
<path d="M66 49.7104C64.6726 51.485 62.9791 52.9533 61.0344 54.0158C59.0896 55.0783 56.9391 55.7102 54.7286 55.8685C52.5182 56.0268 50.2996 55.7079 48.2232 54.9333C46.1469 54.1588 44.2614 52.9468 42.6947 51.3795L33.422 42.1068C30.6069 39.1921 29.0492 35.2882 29.0844 31.2361C29.1196 27.184 30.7449 23.3078 33.6103 20.4425C36.4757 17.5771 40.3519 15.9518 44.404 15.9165C48.4561 15.8813 52.3599 17.4391 55.2746 20.2542L60.5601 25.5396" stroke="#FFA800" stroke-width="6" stroke-linecap="round" stroke-linejoin="round"/>
<path d="M57.2578 40.9683L74.7425 58.453" stroke="#FFA800" stroke-width="6" stroke-linecap="round" stroke-linejoin="round"/>
</g>
<path d="M10.1909 135.288C9.20954 135.288 8.24954 135.213 7.31088 135.064C6.37221 134.915 5.48688 134.691 4.65488 134.392C3.82288 134.072 3.07621 133.688 2.41488 133.24C2.09488 133.005 1.87088 132.739 1.74288 132.44C1.63621 132.141 1.60421 131.853 1.64688 131.576C1.71088 131.277 1.83888 131.021 2.03088 130.808C2.22288 130.595 2.45754 130.467 2.73488 130.424C3.01221 130.36 3.32154 130.445 3.66288 130.68C4.62288 131.299 5.63621 131.757 6.70288 132.056C7.76954 132.333 8.93221 132.472 10.1909 132.472C12.0042 132.472 13.3375 132.152 14.1909 131.512C15.0655 130.851 15.5029 129.997 15.5029 128.952C15.5029 128.099 15.1935 127.427 14.5749 126.936C13.9562 126.424 12.9215 126.019 11.4709 125.72L8.04688 125.016C6.02021 124.589 4.50554 123.885 3.50288 122.904C2.52154 121.923 2.03088 120.6 2.03088 118.936C2.03088 117.933 2.23354 117.016 2.63888 116.184C3.06554 115.352 3.65221 114.637 4.39888 114.04C5.14554 113.421 6.04154 112.952 7.08688 112.632C8.13221 112.312 9.27354 112.152 10.5109 112.152C11.8335 112.152 13.0709 112.323 14.2229 112.664C15.3962 113.005 16.4415 113.528 17.3589 114.232C17.6362 114.424 17.8175 114.669 17.9029 114.968C18.0095 115.245 18.0309 115.523 17.9669 115.8C17.9242 116.077 17.8069 116.312 17.6149 116.504C17.4229 116.696 17.1775 116.813 16.8789 116.856C16.5802 116.877 16.2495 116.771 15.8869 116.536C15.0549 115.981 14.2015 115.587 13.3269 115.352C12.4735 115.096 11.5242 114.968 10.4789 114.968C9.43354 114.968 8.51621 115.128 7.72688 115.448C6.95888 115.768 6.36154 116.216 5.93488 116.792C5.52954 117.368 5.32688 118.051 5.32688 118.84C5.32688 119.736 5.61488 120.451 6.19088 120.984C6.76688 121.517 7.72688 121.923 9.07088 122.2L12.4629 122.904C14.5962 123.352 16.1855 124.045 17.2309 124.984C18.2762 125.923 18.7989 127.171 18.7989 128.728C18.7989 129.731 18.5962 130.637 18.1909 131.448C17.7855 132.237 17.2095 132.92 16.4629 133.496C15.7162 134.072 14.8095 134.52 13.7429 134.84C12.6975 135.139 11.5135 135.288 10.1909 135.288ZM28.7874 135.288C27.5074 135.288 26.43 135.064 25.5554 134.616C24.6807 134.168 24.03 133.507 23.6034 132.632C23.1767 131.757 22.9634 130.691 22.9634 129.432V121.88H21.0434C20.6167 121.88 20.286 121.773 20.0514 121.56C19.8167 121.325 19.6994 121.016 19.6994 120.632C19.6994 120.227 19.8167 119.917 20.0514 119.704C20.286 119.491 20.6167 119.384 21.0434 119.384H22.9634V116.088C22.9634 115.555 23.102 115.149 23.3794 114.872C23.678 114.595 24.0834 114.456 24.5954 114.456C25.1074 114.456 25.502 114.595 25.7794 114.872C26.0567 115.149 26.1954 115.555 26.1954 116.088V119.384H29.9394C30.366 119.384 30.6967 119.491 30.9314 119.704C31.166 119.917 31.2834 120.227 31.2834 120.632C31.2834 121.016 31.166 121.325 30.9314 121.56C30.6967 121.773 30.366 121.88 29.9394 121.88H26.1954V129.176C26.1954 130.307 26.43 131.16 26.8994 131.736C27.39 132.312 28.1794 132.6 29.2674 132.6C29.6514 132.6 29.982 132.568 30.2594 132.504C30.558 132.419 30.8034 132.365 30.9954 132.344C31.23 132.344 31.422 132.429 31.5714 132.6C31.7207 132.749 31.7954 133.048 31.7954 133.496C31.7954 133.816 31.7314 134.115 31.6034 134.392C31.4967 134.669 31.294 134.851 30.9954 134.936C30.7394 135.021 30.3874 135.096 29.9394 135.16C29.5127 135.245 29.1287 135.288 28.7874 135.288ZM40.4466 135.288C38.868 135.288 37.5026 134.957 36.3506 134.296C35.22 133.635 34.3346 132.696 33.6946 131.48C33.0546 130.264 32.7346 128.835 32.7346 127.192C32.7346 125.933 32.916 124.813 33.2786 123.832C33.6413 122.851 34.1533 122.008 34.8146 121.304C35.4973 120.579 36.308 120.035 37.2466 119.672C38.2066 119.288 39.2733 119.096 40.4466 119.096C42.004 119.096 43.348 119.427 44.4786 120.088C45.6306 120.749 46.5266 121.688 47.1666 122.904C47.8066 124.099 48.1266 125.528 48.1266 127.192C48.1266 128.429 47.9453 129.549 47.5826 130.552C47.22 131.555 46.6973 132.408 46.0146 133.112C45.3533 133.816 44.5426 134.36 43.5826 134.744C42.644 135.107 41.5986 135.288 40.4466 135.288ZM40.4466 132.792C41.3213 132.792 42.0893 132.579 42.7506 132.152C43.412 131.725 43.924 131.096 44.2866 130.264C44.6706 129.432 44.8626 128.408 44.8626 127.192C44.8626 125.357 44.4573 123.971 43.6466 123.032C42.836 122.093 41.7693 121.624 40.4466 121.624C39.5506 121.624 38.772 121.837 38.1106 122.264C37.4493 122.669 36.9266 123.288 36.5426 124.12C36.18 124.952 35.9986 125.976 35.9986 127.192C35.9986 129.005 36.404 130.392 37.2146 131.352C38.0253 132.312 39.1026 132.792 40.4466 132.792ZM53.3884 135.224C52.855 135.224 52.4497 135.085 52.1724 134.808C51.895 134.509 51.7564 134.104 51.7564 133.592V120.792C51.7564 120.259 51.895 119.853 52.1724 119.576C52.4497 119.299 52.8337 119.16 53.3244 119.16C53.8364 119.16 54.2204 119.299 54.4764 119.576C54.7537 119.853 54.8924 120.259 54.8924 120.792V123.128H54.5724C54.9137 121.848 55.543 120.877 56.4604 120.216C57.3777 119.555 58.551 119.171 59.9804 119.064C60.3644 119.043 60.663 119.139 60.8764 119.352C61.111 119.565 61.239 119.896 61.2604 120.344C61.303 120.792 61.207 121.155 60.9724 121.432C60.7377 121.688 60.375 121.837 59.8844 121.88L59.2764 121.944C57.8897 122.072 56.8337 122.509 56.1084 123.256C55.383 124.003 55.0204 125.027 55.0204 126.328V133.592C55.0204 134.104 54.8817 134.509 54.6044 134.808C54.3484 135.085 53.943 135.224 53.3884 135.224ZM68.5296 135.288C67.4416 135.288 66.4603 135.075 65.5856 134.648C64.7323 134.221 64.0603 133.645 63.5696 132.92C63.079 132.195 62.8336 131.373 62.8336 130.456C62.8336 129.304 63.1216 128.397 63.6976 127.736C64.295 127.053 65.2656 126.573 66.6096 126.296C67.975 125.997 69.8096 125.848 72.1136 125.848H73.6176V127.832H72.1456C70.6096 127.832 69.3936 127.907 68.4976 128.056C67.6016 128.205 66.9616 128.461 66.5776 128.824C66.215 129.165 66.0336 129.645 66.0336 130.264C66.0336 131.075 66.311 131.736 66.8656 132.248C67.4203 132.739 68.1883 132.984 69.1696 132.984C69.959 132.984 70.6523 132.803 71.2496 132.44C71.847 132.056 72.3163 131.544 72.6576 130.904C73.0203 130.264 73.2016 129.528 73.2016 128.696V125.016C73.2016 123.8 72.9456 122.925 72.4336 122.392C71.9216 121.859 71.079 121.592 69.9056 121.592C69.223 121.592 68.5083 121.677 67.7616 121.848C67.0363 122.019 66.279 122.307 65.4896 122.712C65.127 122.883 64.8176 122.936 64.5616 122.872C64.3056 122.808 64.103 122.669 63.9536 122.456C63.8043 122.221 63.719 121.976 63.6976 121.72C63.6976 121.443 63.7616 121.176 63.8896 120.92C64.039 120.664 64.2843 120.472 64.6256 120.344C65.5643 119.896 66.4923 119.576 67.4096 119.384C68.327 119.192 69.191 119.096 70.0016 119.096C71.431 119.096 72.6043 119.32 73.5216 119.768C74.4603 120.216 75.1536 120.899 75.6016 121.816C76.0496 122.733 76.2736 123.917 76.2736 125.368V133.592C76.2736 134.104 76.1456 134.509 75.8896 134.808C75.6336 135.085 75.2603 135.224 74.7696 135.224C74.3003 135.224 73.927 135.085 73.6496 134.808C73.3723 134.509 73.2336 134.104 73.2336 133.592V131.512H73.5216C73.351 132.301 73.031 132.984 72.5616 133.56C72.1136 134.115 71.5483 134.541 70.8656 134.84C70.183 135.139 69.4043 135.288 68.5296 135.288ZM85.7491 135.288C84.0851 135.288 82.8265 134.808 81.9731 133.848C81.1411 132.867 80.7251 131.459 80.7251 129.624V113.848C80.7251 113.315 80.8638 112.909 81.1411 112.632C81.4185 112.355 81.8131 112.216 82.3251 112.216C82.8371 112.216 83.2318 112.355 83.5091 112.632C83.8078 112.909 83.9571 113.315 83.9571 113.848V129.432C83.9571 130.499 84.1705 131.299 84.5971 131.832C85.0451 132.344 85.6851 132.6 86.5171 132.6C86.7091 132.6 86.8798 132.6 87.0291 132.6C87.1785 132.579 87.3278 132.557 87.4771 132.536C87.7331 132.515 87.9145 132.589 88.0211 132.76C88.1278 132.909 88.1811 133.229 88.1811 133.72C88.1811 134.168 88.0851 134.52 87.8931 134.776C87.7011 135.011 87.3918 135.16 86.9651 135.224C86.7731 135.245 86.5705 135.256 86.3571 135.256C86.1438 135.277 85.9411 135.288 85.7491 135.288ZM92.1064 135.192C91.5944 135.192 91.1997 135.043 90.9224 134.744C90.645 134.424 90.5064 133.987 90.5064 133.432V120.952C90.5064 120.397 90.645 119.971 90.9224 119.672C91.1997 119.373 91.5944 119.224 92.1064 119.224C92.6184 119.224 93.013 119.373 93.2904 119.672C93.589 119.971 93.7384 120.397 93.7384 120.952V133.432C93.7384 133.987 93.5997 134.424 93.3224 134.744C93.045 135.043 92.6397 135.192 92.1064 135.192ZM92.1064 115.896C91.4664 115.896 90.965 115.736 90.6024 115.416C90.261 115.096 90.0904 114.648 90.0904 114.072C90.0904 113.475 90.261 113.027 90.6024 112.728C90.965 112.408 91.4664 112.248 92.1064 112.248C92.7464 112.248 93.237 112.408 93.5784 112.728C93.941 113.027 94.1224 113.475 94.1224 114.072C94.1224 114.648 93.941 115.096 93.5784 115.416C93.237 115.736 92.7464 115.896 92.1064 115.896ZM99.8876 135.224C99.3756 135.224 98.981 135.085 98.7036 134.808C98.4263 134.509 98.2876 134.104 98.2876 133.592V120.792C98.2876 120.259 98.4263 119.853 98.7036 119.576C98.981 119.299 99.365 119.16 99.8556 119.16C100.368 119.16 100.752 119.299 101.008 119.576C101.285 119.853 101.424 120.259 101.424 120.792V123.288L101.072 122.712C101.541 121.517 102.277 120.621 103.28 120.024C104.282 119.405 105.434 119.096 106.736 119.096C107.973 119.096 108.997 119.331 109.808 119.8C110.64 120.248 111.258 120.941 111.664 121.88C112.069 122.797 112.272 123.96 112.272 125.368V133.592C112.272 134.104 112.133 134.509 111.856 134.808C111.578 135.085 111.184 135.224 110.672 135.224C110.138 135.224 109.733 135.085 109.456 134.808C109.178 134.509 109.04 134.104 109.04 133.592V125.56C109.04 124.216 108.773 123.235 108.24 122.616C107.728 121.997 106.917 121.688 105.808 121.688C104.506 121.688 103.461 122.093 102.672 122.904C101.904 123.715 101.52 124.803 101.52 126.168V133.592C101.52 134.68 100.976 135.224 99.8876 135.224ZM118.325 135.224C117.813 135.224 117.418 135.085 117.141 134.808C116.864 134.509 116.725 134.104 116.725 133.592V113.848C116.725 113.315 116.864 112.909 117.141 112.632C117.418 112.355 117.813 112.216 118.325 112.216C118.837 112.216 119.232 112.355 119.509 112.632C119.808 112.909 119.957 113.315 119.957 113.848V126.2H120.021L126.005 120.248C126.346 119.907 126.656 119.64 126.933 119.448C127.21 119.256 127.573 119.16 128.021 119.16C128.469 119.16 128.81 119.277 129.045 119.512C129.28 119.747 129.397 120.035 129.397 120.376C129.397 120.696 129.237 121.027 128.917 121.368L122.581 127.64V126.136L129.493 133.016C129.834 133.357 129.994 133.699 129.973 134.04C129.952 134.381 129.813 134.669 129.557 134.904C129.301 135.117 128.981 135.224 128.597 135.224C128.106 135.224 127.712 135.128 127.413 134.936C127.136 134.744 126.805 134.456 126.421 134.072L120.021 127.864H119.957V133.592C119.957 134.68 119.413 135.224 118.325 135.224Z" fill="#FFA800"/>
</svg>
