<svg width="20" height="21" viewBox="0 0 20 21" fill="none" xmlns="http://www.w3.org/2000/svg">
<g clip-path="url(#clip0_544_1096)">
<path d="M5.07157 20.1377C4.29798 20.1291 3.53167 19.9872 2.80627 19.7183C2.27656 19.5225 1.7973 19.2108 1.40353 18.8059C0.997602 18.413 0.685428 17.9336 0.490196 17.4034C0.22152 16.678 0.0798397 15.9118 0.0713725 15.1383C0.0119608 13.8524 0 13.4667 0 10.2085C0 6.95026 0.0131373 6.56595 0.0707843 5.27908C0.0802789 4.5059 0.222134 3.74006 0.490196 3.01477C0.686378 2.48497 0.99811 2.00551 1.40274 1.61124C1.79602 1.20568 2.27551 0.893794 2.80569 0.698692C3.53108 0.429793 4.2974 0.287913 5.07098 0.27928C6.35725 0.220457 6.74353 0.208496 10 0.208496C13.2565 0.208496 13.6425 0.221633 14.9294 0.27928C15.7028 0.288708 16.4688 0.430564 17.1943 0.698692C17.7243 0.894052 18.2036 1.20583 18.5971 1.61105C19.0024 2.00462 19.3143 2.4841 19.5098 3.01418C19.7788 3.73957 19.9207 4.50588 19.9294 5.27948C19.9882 6.56634 20.0002 6.95163 20.0002 10.2089C20.0002 13.4661 19.9882 13.8514 19.9294 15.1383C19.9201 15.9118 19.7781 16.6779 19.5098 17.4034C19.3068 17.9295 18.9959 18.4073 18.5971 18.806C18.1983 19.2047 17.7205 19.5155 17.1943 19.7183C16.4689 19.9873 15.7026 20.1292 14.929 20.1379C13.6433 20.1967 13.2569 20.2087 9.99961 20.2087C6.74235 20.2087 6.35706 20.1973 5.07137 20.1379" fill="url(#paint0_radial_544_1096)"/>
<path d="M5.07157 20.1377C4.29798 20.1291 3.53167 19.9872 2.80627 19.7183C2.27656 19.5225 1.7973 19.2108 1.40353 18.8059C0.997602 18.413 0.685428 17.9336 0.490196 17.4034C0.22152 16.678 0.0798397 15.9118 0.0713725 15.1383C0.0119608 13.8524 0 13.4667 0 10.2085C0 6.95026 0.0131373 6.56595 0.0707843 5.27908C0.0802789 4.5059 0.222134 3.74006 0.490196 3.01477C0.686378 2.48497 0.99811 2.00551 1.40274 1.61124C1.79602 1.20568 2.27551 0.893794 2.80569 0.698692C3.53108 0.429793 4.2974 0.287913 5.07098 0.27928C6.35725 0.220457 6.74353 0.208496 10 0.208496C13.2565 0.208496 13.6425 0.221633 14.9294 0.27928C15.7028 0.288708 16.4688 0.430564 17.1943 0.698692C17.7243 0.894052 18.2036 1.20583 18.5971 1.61105C19.0024 2.00462 19.3143 2.4841 19.5098 3.01418C19.7788 3.73957 19.9207 4.50588 19.9294 5.27948C19.9882 6.56634 20.0002 6.95163 20.0002 10.2089C20.0002 13.4661 19.9882 13.8514 19.9294 15.1383C19.9201 15.9118 19.7781 16.6779 19.5098 17.4034C19.3068 17.9295 18.9959 18.4073 18.5971 18.806C18.1983 19.2047 17.7205 19.5155 17.1943 19.7183C16.4689 19.9873 15.7026 20.1292 14.929 20.1379C13.6433 20.1967 13.2569 20.2087 9.99961 20.2087C6.74235 20.2087 6.35706 20.1973 5.07137 20.1379" fill="url(#paint1_radial_544_1096)"/>
<mask id="path-3-inside-1_544_1096" fill="white">
<path d="M7.54452 10.2509C7.54456 9.76105 7.68985 9.28222 7.96203 8.87495C8.23421 8.46768 8.62105 8.15027 9.07363 7.96286C9.5262 7.77544 10.0242 7.72645 10.5046 7.82207C10.985 7.91768 11.4263 8.15362 11.7727 8.50003C12.119 8.84645 12.3548 9.28779 12.4503 9.76823C12.5458 10.2487 12.4967 10.7467 12.3092 11.1992C12.1217 11.6517 11.8042 12.0385 11.3968 12.3106C10.9895 12.5827 10.5106 12.7278 10.0208 12.7278C9.36397 12.7277 8.73409 12.4666 8.2697 12.0022C7.80532 11.5377 7.54446 10.9077 7.54452 10.2509ZM6.20549 10.2509C6.20549 11.0055 6.42926 11.7431 6.84849 12.3706C7.26772 12.998 7.86359 13.487 8.56074 13.7758C9.25789 14.0645 10.025 14.1401 10.7651 13.9929C11.5052 13.8457 12.185 13.4823 12.7186 12.9487C13.2522 12.4151 13.6156 11.7353 13.7628 10.9952C13.91 10.2551 13.8344 9.488 13.5457 8.79085C13.2569 8.09369 12.7679 7.49782 12.1405 7.07859C11.513 6.65936 10.7754 6.4356 10.0208 6.4356C9.51975 6.43557 9.02361 6.53424 8.56071 6.72597C8.09781 6.9177 7.6772 7.19873 7.32291 7.55302C6.96862 7.9073 6.68759 8.32791 6.49587 8.79082C6.30414 9.25372 6.20547 9.74986 6.20549 10.2509ZM13.0955 6.28442C13.0954 6.46076 13.1476 6.63316 13.2455 6.77982C13.3434 6.92648 13.4826 7.04082 13.6455 7.10837C13.8084 7.17592 13.9877 7.19366 14.1606 7.15933C14.3336 7.12501 14.4925 7.04016 14.6172 6.91553C14.742 6.79089 14.8269 6.63207 14.8614 6.45914C14.8959 6.28621 14.8783 6.10693 14.8109 5.94399C14.7435 5.78105 14.6293 5.64176 14.4827 5.54373C14.3361 5.4457 14.1638 5.39333 13.9875 5.39325C13.7511 5.39335 13.5244 5.48727 13.3573 5.65436C13.1901 5.82146 13.0961 6.04807 13.0959 6.28442M7.01942 16.2989C6.54826 16.2938 6.08151 16.2075 5.63961 16.044C5.31914 15.9205 5.02808 15.7313 4.78517 15.4884C4.54225 15.2456 4.35288 14.9547 4.22922 14.6342C4.06564 14.1923 3.97942 13.7256 3.97432 13.2544C3.93824 12.4713 3.93118 12.236 3.93118 10.2519C3.93118 8.26776 3.93902 8.03305 3.97432 7.24913C3.98004 6.77803 4.06624 6.31137 4.22922 5.86933C4.35273 5.54875 4.54206 5.25762 4.78498 5.0147C5.0279 4.77177 5.31904 4.58245 5.63961 4.45893C6.08149 4.29536 6.54826 4.20914 7.01942 4.20403C7.80255 4.16796 8.03785 4.1609 10.0212 4.1609C12.0045 4.1609 12.24 4.16855 13.0239 4.20423C13.495 4.20995 13.9617 4.29615 14.4037 4.45913C14.7243 4.58266 15.0154 4.77198 15.2583 5.0149C15.5013 5.25783 15.6906 5.54895 15.8141 5.86952C15.9777 6.31141 16.0639 6.77817 16.069 7.24933C16.1051 8.03364 16.1122 8.26776 16.1122 10.2521C16.1122 12.2364 16.1049 12.4709 16.069 13.2548C16.0635 13.7259 15.9773 14.1926 15.8141 14.6346C15.6905 14.955 15.5011 15.246 15.2582 15.4888C15.0153 15.7316 14.7242 15.9209 14.4037 16.0444C13.9618 16.208 13.4951 16.2942 13.0239 16.2993C12.2408 16.3354 12.0055 16.3425 10.0212 16.3425C8.03687 16.3425 7.80236 16.3352 7.01942 16.2993M6.95785 2.86619C6.34135 2.87831 5.73137 2.995 5.15393 3.21129C4.6603 3.40214 4.212 3.69405 3.83777 4.06827C3.46355 4.4425 3.17164 4.8908 2.98079 5.38442C2.76453 5.96188 2.64784 6.57185 2.63569 7.18835C2.59903 7.98051 2.59079 8.23384 2.59079 10.2517C2.59079 12.2695 2.59922 12.5227 2.63569 13.315C2.64784 13.9315 2.76453 14.5415 2.98079 15.1189C3.17165 15.6126 3.46356 16.0608 3.83779 16.4351C4.21201 16.8093 4.6603 17.1012 5.15393 17.2921C5.7314 17.5083 6.34136 17.625 6.95785 17.6372C7.7504 17.6733 8.00334 17.6821 10.0212 17.6821C12.039 17.6821 12.2922 17.6736 13.0845 17.6372C13.701 17.625 14.311 17.5083 14.8884 17.2921C15.3821 17.1012 15.8303 16.8093 16.2046 16.4351C16.5788 16.0608 16.8707 15.6126 17.0616 15.1189C17.2781 14.5416 17.3948 13.9315 17.4067 13.315C17.4428 12.5223 17.451 12.2695 17.451 10.2517C17.451 8.23384 17.4426 7.9807 17.4067 7.18835C17.3946 6.57185 17.2779 5.96187 17.0616 5.38442C16.8707 4.89089 16.5789 4.44266 16.2048 4.06845C15.8307 3.69423 15.3825 3.40228 14.889 3.21129C14.3116 2.99486 13.7016 2.87817 13.0851 2.86619C12.2927 2.82992 12.0396 2.82129 10.0222 2.82129C8.00471 2.82129 7.75098 2.82972 6.95824 2.86619"/>
</mask>
<path d="M7.54452 10.2509C7.54456 9.76105 7.68985 9.28222 7.96203 8.87495C8.23421 8.46768 8.62105 8.15027 9.07363 7.96286C9.5262 7.77544 10.0242 7.72645 10.5046 7.82207C10.985 7.91768 11.4263 8.15362 11.7727 8.50003C12.119 8.84645 12.3548 9.28779 12.4503 9.76823C12.5458 10.2487 12.4967 10.7467 12.3092 11.1992C12.1217 11.6517 11.8042 12.0385 11.3968 12.3106C10.9895 12.5827 10.5106 12.7278 10.0208 12.7278C9.36397 12.7277 8.73409 12.4666 8.2697 12.0022C7.80532 11.5377 7.54446 10.9077 7.54452 10.2509ZM6.20549 10.2509C6.20549 11.0055 6.42926 11.7431 6.84849 12.3706C7.26772 12.998 7.86359 13.487 8.56074 13.7758C9.25789 14.0645 10.025 14.1401 10.7651 13.9929C11.5052 13.8457 12.185 13.4823 12.7186 12.9487C13.2522 12.4151 13.6156 11.7353 13.7628 10.9952C13.91 10.2551 13.8344 9.488 13.5457 8.79085C13.2569 8.09369 12.7679 7.49782 12.1405 7.07859C11.513 6.65936 10.7754 6.4356 10.0208 6.4356C9.51975 6.43557 9.02361 6.53424 8.56071 6.72597C8.09781 6.9177 7.6772 7.19873 7.32291 7.55302C6.96862 7.9073 6.68759 8.32791 6.49587 8.79082C6.30414 9.25372 6.20547 9.74986 6.20549 10.2509ZM13.0955 6.28442C13.0954 6.46076 13.1476 6.63316 13.2455 6.77982C13.3434 6.92648 13.4826 7.04082 13.6455 7.10837C13.8084 7.17592 13.9877 7.19366 14.1606 7.15933C14.3336 7.12501 14.4925 7.04016 14.6172 6.91553C14.742 6.79089 14.8269 6.63207 14.8614 6.45914C14.8959 6.28621 14.8783 6.10693 14.8109 5.94399C14.7435 5.78105 14.6293 5.64176 14.4827 5.54373C14.3361 5.4457 14.1638 5.39333 13.9875 5.39325C13.7511 5.39335 13.5244 5.48727 13.3573 5.65436C13.1901 5.82146 13.0961 6.04807 13.0959 6.28442M7.01942 16.2989C6.54826 16.2938 6.08151 16.2075 5.63961 16.044C5.31914 15.9205 5.02808 15.7313 4.78517 15.4884C4.54225 15.2456 4.35288 14.9547 4.22922 14.6342C4.06564 14.1923 3.97942 13.7256 3.97432 13.2544C3.93824 12.4713 3.93118 12.236 3.93118 10.2519C3.93118 8.26776 3.93902 8.03305 3.97432 7.24913C3.98004 6.77803 4.06624 6.31137 4.22922 5.86933C4.35273 5.54875 4.54206 5.25762 4.78498 5.0147C5.0279 4.77177 5.31904 4.58245 5.63961 4.45893C6.08149 4.29536 6.54826 4.20914 7.01942 4.20403C7.80255 4.16796 8.03785 4.1609 10.0212 4.1609C12.0045 4.1609 12.24 4.16855 13.0239 4.20423C13.495 4.20995 13.9617 4.29615 14.4037 4.45913C14.7243 4.58266 15.0154 4.77198 15.2583 5.0149C15.5013 5.25783 15.6906 5.54895 15.8141 5.86952C15.9777 6.31141 16.0639 6.77817 16.069 7.24933C16.1051 8.03364 16.1122 8.26776 16.1122 10.2521C16.1122 12.2364 16.1049 12.4709 16.069 13.2548C16.0635 13.7259 15.9773 14.1926 15.8141 14.6346C15.6905 14.955 15.5011 15.246 15.2582 15.4888C15.0153 15.7316 14.7242 15.9209 14.4037 16.0444C13.9618 16.208 13.4951 16.2942 13.0239 16.2993C12.2408 16.3354 12.0055 16.3425 10.0212 16.3425C8.03687 16.3425 7.80236 16.3352 7.01942 16.2993M6.95785 2.86619C6.34135 2.87831 5.73137 2.995 5.15393 3.21129C4.6603 3.40214 4.212 3.69405 3.83777 4.06827C3.46355 4.4425 3.17164 4.8908 2.98079 5.38442C2.76453 5.96188 2.64784 6.57185 2.63569 7.18835C2.59903 7.98051 2.59079 8.23384 2.59079 10.2517C2.59079 12.2695 2.59922 12.5227 2.63569 13.315C2.64784 13.9315 2.76453 14.5415 2.98079 15.1189C3.17165 15.6126 3.46356 16.0608 3.83779 16.4351C4.21201 16.8093 4.6603 17.1012 5.15393 17.2921C5.7314 17.5083 6.34136 17.625 6.95785 17.6372C7.7504 17.6733 8.00334 17.6821 10.0212 17.6821C12.039 17.6821 12.2922 17.6736 13.0845 17.6372C13.701 17.625 14.311 17.5083 14.8884 17.2921C15.3821 17.1012 15.8303 16.8093 16.2046 16.4351C16.5788 16.0608 16.8707 15.6126 17.0616 15.1189C17.2781 14.5416 17.3948 13.9315 17.4067 13.315C17.4428 12.5223 17.451 12.2695 17.451 10.2517C17.451 8.23384 17.4426 7.9807 17.4067 7.18835C17.3946 6.57185 17.2779 5.96187 17.0616 5.38442C16.8707 4.89089 16.5789 4.44266 16.2048 4.06845C15.8307 3.69423 15.3825 3.40228 14.889 3.21129C14.3116 2.99486 13.7016 2.87817 13.0851 2.86619C12.2927 2.82992 12.0396 2.82129 10.0222 2.82129C8.00471 2.82129 7.75098 2.82972 6.95824 2.86619" fill="white"/>
<path d="M7.54452 10.2509L8.54452 10.251L7.54452 10.2509ZM10.0208 12.7278L10.0206 13.7278L10.0208 12.7278ZM6.20549 10.2509L7.20549 10.2509L7.20549 10.2508L6.20549 10.2509ZM10.0208 6.4356L10.0207 7.4356H10.0208L10.0208 6.4356ZM13.9875 5.39325L13.9879 4.39325L13.987 4.39325L13.9875 5.39325ZM5.63961 16.044L5.27992 16.9772L5.29261 16.9819L5.63961 16.044ZM4.22922 14.6342L3.29132 14.9814L3.29628 14.9943L4.22922 14.6342ZM3.97432 13.2544L4.97426 13.2436L4.97407 13.226L4.97326 13.2084L3.97432 13.2544ZM3.97432 7.24913L4.97331 7.29411L4.97405 7.2777L4.97425 7.26127L3.97432 7.24913ZM4.22922 5.86933L3.29608 5.5098L3.29347 5.51658L3.29096 5.5234L4.22922 5.86933ZM5.63961 4.45893L5.29243 3.52104L5.28008 3.5258L5.63961 4.45893ZM7.01942 4.20403L7.03025 5.20398L7.04785 5.20379L7.06544 5.20298L7.01942 4.20403ZM13.0239 4.20423L12.9784 5.2032L12.9951 5.20396L13.0118 5.20416L13.0239 4.20423ZM14.4037 4.45913L14.7633 3.52601L14.7565 3.52339L14.7497 3.52087L14.4037 4.45913ZM15.8141 5.86952L16.752 5.52236L16.7472 5.50996L15.8141 5.86952ZM16.069 7.24933L15.0691 7.26018L15.0693 7.27774L15.0701 7.29528L16.069 7.24933ZM16.069 13.2548L15.0701 13.2091L15.0693 13.2261L15.0691 13.2432L16.069 13.2548ZM15.8141 14.6346L16.7471 14.9947L16.7497 14.9878L16.7522 14.981L15.8141 14.6346ZM14.4037 16.0444L14.7509 16.9823L14.7634 16.9775L14.4037 16.0444ZM13.0239 16.2993L13.0131 15.2994L12.9955 15.2996L12.9779 15.3004L13.0239 16.2993ZM5.15393 3.21129L4.80315 2.27477L4.7933 2.27858L5.15393 3.21129ZM2.98079 5.38442L2.04802 5.02378L2.0443 5.03371L2.98079 5.38442ZM2.63569 7.18835L3.63462 7.23459L3.63524 7.22133L3.6355 7.20806L2.63569 7.18835ZM2.63569 13.315L3.6355 13.2953L3.63524 13.2822L3.63463 13.269L2.63569 13.315ZM2.98079 15.1189L2.04425 15.4697L2.04808 15.4796L2.98079 15.1189ZM5.15393 17.2921L4.79326 18.2248L4.80332 18.2286L5.15393 17.2921ZM6.95785 17.6372L7.00332 16.6382L6.9905 16.6376L6.97767 16.6374L6.95785 17.6372ZM13.0845 17.6372L13.0648 16.6374L13.0516 16.6376L13.0385 16.6382L13.0845 17.6372ZM14.8884 17.2921L15.2391 18.2286L15.2491 18.2248L14.8884 17.2921ZM17.0616 15.1189L17.9943 15.4796L17.9979 15.4701L17.0616 15.1189ZM17.4067 13.315L16.4077 13.2696L16.4071 13.2827L16.4069 13.2958L17.4067 13.315ZM17.4067 7.18835L16.4069 7.20801L16.4071 7.2208L16.4077 7.23359L17.4067 7.18835ZM17.0616 5.38442L17.9981 5.03365L17.9943 5.02374L17.0616 5.38442ZM14.889 3.21129L15.25 2.27864L15.24 2.2749L14.889 3.21129ZM13.0851 2.86619L13.0394 3.86515L13.0525 3.86575L13.0657 3.866L13.0851 2.86619ZM8.54452 10.251C8.54454 9.95891 8.63117 9.67342 8.79345 9.43059L7.13061 8.3193C6.74853 8.89101 6.54457 9.56318 6.54452 10.2508L8.54452 10.251ZM8.79345 9.43059C8.95574 9.18776 9.18638 8.99851 9.45622 8.88677L8.69103 7.03894C8.05571 7.30202 7.51269 7.7476 7.13061 8.3193L8.79345 9.43059ZM9.45622 8.88677C9.72606 8.77503 10.023 8.74582 10.3094 8.80283L10.6998 6.8413C10.0254 6.70708 9.32635 6.77585 8.69103 7.03894L9.45622 8.88677ZM10.3094 8.80283C10.5959 8.85984 10.859 9.00051 11.0655 9.20705L12.4798 7.79301C11.9937 7.30672 11.3742 6.97553 10.6998 6.8413L10.3094 8.80283ZM11.0655 9.20705C11.272 9.41359 11.4126 9.67674 11.4695 9.9632L13.4311 9.57327C13.2971 8.89884 12.966 8.2793 12.4798 7.79301L11.0655 9.20705ZM11.4695 9.9632C11.5265 10.2497 11.4972 10.5466 11.3854 10.8164L13.233 11.582C13.4963 10.9467 13.5652 10.2477 13.4311 9.57327L11.4695 9.9632ZM11.3854 10.8164C11.2736 11.0862 11.0843 11.3168 10.8414 11.479L11.9523 13.1421C12.5241 12.7602 12.9698 12.2173 13.233 11.582L11.3854 10.8164ZM10.8414 11.479C10.5985 11.6412 10.313 11.7278 10.0209 11.7278L10.0206 13.7278C10.7083 13.7279 11.3805 13.5241 11.9523 13.1421L10.8414 11.479ZM10.0209 11.7278C9.62934 11.7277 9.25378 11.5721 8.97689 11.2951L7.56251 12.7092C8.2144 13.3612 9.09861 13.7276 10.0206 13.7278L10.0209 11.7278ZM8.97689 11.2951C8.70002 11.0182 8.54449 10.6426 8.54452 10.251L6.54452 10.2508C6.54444 11.1728 6.91062 12.0571 7.56251 12.7092L8.97689 11.2951ZM5.20549 10.2509C5.20549 11.2033 5.48791 12.1343 6.01702 12.9261L7.67996 11.815C7.37061 11.352 7.20549 10.8077 7.20549 10.2509H5.20549ZM6.01702 12.9261C6.54613 13.718 7.29818 14.3352 8.17806 14.6997L8.94342 12.8519C8.429 12.6388 7.98931 12.278 7.67996 11.815L6.01702 12.9261ZM8.17806 14.6997C9.05794 15.0641 10.0261 15.1595 10.9602 14.9737L10.57 13.0121C10.0239 13.1207 9.45785 13.065 8.94342 12.8519L8.17806 14.6997ZM10.9602 14.9737C11.8943 14.7879 12.7523 14.3293 13.4257 13.6558L12.0115 12.2416C11.6178 12.6353 11.1161 12.9035 10.57 13.0121L10.9602 14.9737ZM13.4257 13.6558C14.0991 12.9824 14.5578 12.1244 14.7436 11.1903L12.782 10.8001C12.6734 11.3462 12.4052 11.8479 12.0115 12.2416L13.4257 13.6558ZM14.7436 11.1903C14.9294 10.2562 14.834 9.28804 14.4695 8.40816L12.6218 9.17353C12.8349 9.68796 12.8906 10.254 12.782 10.8001L14.7436 11.1903ZM14.4695 8.40816C14.1051 7.52828 13.4879 6.77624 12.696 6.24712L11.5849 7.91006C12.0479 8.21941 12.4087 8.6591 12.6218 9.17353L14.4695 8.40816ZM12.696 6.24712C11.9042 5.71801 10.9732 5.4356 10.0208 5.4356L10.0208 7.4356C10.5776 7.4356 11.1219 7.60071 11.5849 7.91006L12.696 6.24712ZM10.0208 5.4356C9.38847 5.43557 8.76229 5.5601 8.17805 5.80208L8.94337 7.64986C9.28494 7.50839 9.65103 7.43558 10.0207 7.4356L10.0208 5.4356ZM8.17805 5.80208C7.59381 6.04406 7.06296 6.39875 6.6158 6.84591L8.03002 8.26012C8.29144 7.9987 8.6018 7.79134 8.94337 7.64986L8.17805 5.80208ZM6.6158 6.84591C6.16865 7.29307 5.81396 7.82392 5.57198 8.40816L7.41976 9.17348C7.56123 8.8319 7.7686 8.52154 8.03002 8.26012L6.6158 6.84591ZM5.57198 8.40816C5.33 8.99239 5.20546 9.61858 5.20549 10.2509L7.20549 10.2508C7.20548 9.88114 7.27828 9.51505 7.41976 9.17348L5.57198 8.40816ZM12.0955 6.28398C12.0953 6.6581 12.2061 7.02387 12.4138 7.33502L14.0772 6.22462C14.0892 6.24245 14.0955 6.26342 14.0955 6.28486L12.0955 6.28398ZM12.4138 7.33502C12.6215 7.64618 12.9168 7.88876 13.2624 8.03208L14.0286 6.18466C14.0484 6.19287 14.0653 6.20678 14.0772 6.22462L12.4138 7.33502ZM13.2624 8.03208C13.608 8.1754 13.9883 8.21303 14.3553 8.1402L13.966 6.17846C13.987 6.17429 14.0088 6.17645 14.0286 6.18466L13.2624 8.03208ZM14.3553 8.1402C14.7222 8.06738 15.0594 7.88737 15.324 7.62295L13.9104 6.20811C13.9256 6.19296 13.9449 6.18264 13.966 6.17846L14.3553 8.1402ZM15.324 7.62295C15.5887 7.35852 15.769 7.02155 15.8421 6.65466L13.8807 6.26362C13.8849 6.24259 13.8953 6.22327 13.9104 6.20811L15.324 7.62295ZM15.8421 6.65466C15.9153 6.28776 15.878 5.90741 15.735 5.56171L13.8869 6.32627C13.8787 6.30645 13.8765 6.28465 13.8807 6.26362L15.8421 6.65466ZM15.735 5.56171C15.5919 5.21601 15.3496 4.92048 15.0387 4.7125L13.9268 6.37495C13.909 6.36303 13.8951 6.34609 13.8869 6.32627L15.735 5.56171ZM15.0387 4.7125C14.7277 4.50452 14.362 4.39342 13.9879 4.39325L13.987 6.39325C13.9656 6.39324 13.9446 6.38687 13.9268 6.37495L15.0387 4.7125ZM13.987 4.39325C13.4857 4.39347 13.0049 4.59267 12.6503 4.9471L14.0642 6.36162C14.044 6.38186 14.0165 6.39324 13.9879 6.39325L13.987 4.39325ZM12.6503 4.9471C12.2957 5.30153 12.0963 5.7822 12.0959 6.28355L14.0959 6.2853C14.0959 6.31393 14.0845 6.34138 14.0642 6.36162L12.6503 4.9471ZM7.03041 15.299C6.67398 15.2951 6.32089 15.2299 5.98661 15.1062L5.29261 16.9819C5.84213 17.1852 6.42255 17.2924 7.00843 17.2989L7.03041 15.299ZM5.99926 15.111C5.80905 15.0376 5.6363 14.9253 5.49212 14.7812L4.07821 16.1957C4.41985 16.5372 4.82922 16.8034 5.27996 16.9771L5.99926 15.111ZM5.49212 14.7812C5.34795 14.6371 5.23555 14.4644 5.16216 14.2742L3.29628 14.9943C3.4702 15.4449 3.73656 15.8542 4.07821 16.1957L5.49212 14.7812ZM5.16703 14.2871C5.04333 13.9529 4.97812 13.5999 4.97426 13.2436L2.97438 13.2652C2.98072 13.8513 3.08796 14.4318 3.29141 14.9814L5.16703 14.2871ZM4.97326 13.2084C4.93827 12.449 4.93118 12.2323 4.93118 10.2519H2.93118C2.93118 12.2397 2.93821 12.4936 2.97538 13.3004L4.97326 13.2084ZM4.93118 10.2519C4.93118 8.2724 4.93903 8.0554 4.97331 7.29411L2.97533 7.20416C2.93902 8.0107 2.93118 8.26311 2.93118 10.2519H4.93118ZM4.97425 7.26127C4.97858 6.90413 5.04393 6.55036 5.16748 6.21525L3.29096 5.5234C3.08855 6.07239 2.98149 6.65194 2.97439 7.237L4.97425 7.26127ZM5.16235 6.22885C5.23563 6.03866 5.34796 5.86593 5.49209 5.7218L4.07787 4.30759C3.73615 4.64931 3.46983 5.05884 3.29608 5.5098L5.16235 6.22885ZM5.49209 5.7218C5.63622 5.57767 5.80894 5.46535 5.99914 5.39207L5.28008 3.5258C4.82913 3.69955 4.41959 3.96587 4.07787 4.30759L5.49209 5.7218ZM5.98675 5.39675C6.32093 5.27305 6.67392 5.20784 7.03025 5.20398L7.00858 3.20409C6.42259 3.21044 5.84206 3.31768 5.29246 3.52112L5.98675 5.39675ZM7.06544 5.20298C7.82487 5.16799 8.04154 5.1609 10.0212 5.1609V3.1609C8.03415 3.1609 7.78024 3.16792 6.9734 3.20509L7.06544 5.20298ZM10.0212 5.1609C12.0001 5.1609 12.2176 5.16856 12.9784 5.2032L13.0694 3.20527C12.2624 3.16853 12.0089 3.1609 10.0212 3.1609V5.1609ZM13.0118 5.20416C13.3689 5.20849 13.7227 5.27384 14.0578 5.39739L14.7497 3.52087C14.2007 3.31846 13.6211 3.2114 13.0361 3.20431L13.0118 5.20416ZM14.0442 5.39225C14.2344 5.46554 14.4071 5.57788 14.5512 5.72201L15.9655 4.3078C15.6237 3.96609 15.2142 3.69977 14.7633 3.52601L14.0442 5.39225ZM14.5512 5.72201C14.6954 5.86615 14.8077 6.03888 14.881 6.22909L16.7472 5.50996C16.5735 5.05903 16.3072 4.64951 15.9655 4.3078L14.5512 5.72201ZM14.8763 6.21665C15 6.55084 15.0652 6.90384 15.0691 7.26018L17.069 7.23848C17.0626 6.6525 16.9554 6.07198 16.7519 5.52239L14.8763 6.21665ZM15.0701 7.29528C15.1051 8.05595 15.1122 8.27149 15.1122 10.2521H17.1122C17.1122 8.26403 17.1051 8.01134 17.068 7.20338L15.0701 7.29528ZM15.1122 10.2521C15.1122 12.2324 15.1049 12.4486 15.0701 13.2091L17.068 13.3005C17.1049 12.4932 17.1122 12.2403 17.1122 10.2521H15.1122ZM15.0691 13.2432C15.0649 13.6 14.9996 13.9535 14.876 14.2882L16.7522 14.981C16.955 14.4318 17.0621 13.8519 17.069 13.2665L15.0691 13.2432ZM14.8812 14.2746C14.8078 14.4648 14.6954 14.6375 14.5512 14.7816L15.9651 16.1961C16.3068 15.8546 16.5731 15.4453 16.7471 14.9947L14.8812 14.2746ZM14.5512 14.7816C14.407 14.9257 14.2343 15.038 14.0441 15.1113L14.7634 16.9775C15.2141 16.8038 15.6235 16.5376 15.9651 16.1961L14.5512 14.7816ZM14.0566 15.1066C13.7224 15.2303 13.3694 15.2955 13.0131 15.2994L13.0348 17.2993C13.6208 17.2929 14.2013 17.1857 14.7509 16.9822L14.0566 15.1066ZM12.9779 15.3004C12.2185 15.3354 12.0018 15.3425 10.0212 15.3425V17.3425C12.0092 17.3425 12.2631 17.3354 13.0699 17.2983L12.9779 15.3004ZM10.0212 15.3425C8.04079 15.3425 7.82469 15.3352 7.0652 15.3004L6.97363 17.2983C7.78003 17.3352 8.03294 17.3425 10.0212 17.3425V15.3425ZM6.93819 1.86639C6.20854 1.88073 5.4866 2.01883 4.80317 2.27482L5.50468 4.14775C5.97614 3.97117 6.47415 3.8759 6.97751 3.866L6.93819 1.86639ZM4.7933 2.27858C4.16972 2.51968 3.60341 2.88842 3.13067 3.36117L4.54488 4.77538C4.82059 4.49967 5.15088 4.28461 5.51455 4.144L4.7933 2.27858ZM3.13067 3.36117C2.65792 3.83391 2.28918 4.40022 2.04808 5.0238L3.9135 5.74505C4.05411 5.38138 4.26917 5.05109 4.54488 4.77538L3.13067 3.36117ZM2.0443 5.03371C1.78836 5.71713 1.65027 6.43902 1.63589 7.16864L3.6355 7.20806C3.64542 6.70467 3.7407 6.20663 3.91727 5.73514L2.0443 5.03371ZM1.63676 7.14211C1.59901 7.95768 1.59079 8.22935 1.59079 10.2517H3.59079C3.59079 8.23832 3.59904 8.00333 3.63462 7.23459L1.63676 7.14211ZM1.59079 10.2517C1.59079 12.2742 1.59921 12.5455 1.63675 13.361L3.63463 13.269C3.59923 12.4998 3.59079 12.2648 3.59079 10.2517H1.59079ZM1.63589 13.3347C1.65026 14.0643 1.78836 14.7862 2.04431 15.4697L3.91727 14.7682C3.74069 14.2967 3.64542 13.7987 3.6355 13.2953L1.63589 13.3347ZM2.04808 15.4796C2.2892 16.1031 2.65794 16.6694 3.13068 17.1422L4.54489 15.728C4.26918 15.4523 4.05411 15.122 3.91349 14.7583L2.04808 15.4796ZM3.13068 17.1422C3.60342 17.6149 4.16972 17.9837 4.79328 18.2248L5.51457 16.3594C5.15089 16.2187 4.82061 16.0037 4.54489 15.728L3.13068 17.1422ZM4.80332 18.2286C5.48668 18.4844 6.20849 18.6225 6.93803 18.637L6.97767 16.6374C6.47423 16.6274 5.97611 16.5321 5.50453 16.3556L4.80332 18.2286ZM6.91237 18.6361C7.72754 18.6732 7.99816 18.6821 10.0212 18.6821V16.6821C8.00851 16.6821 7.77326 16.6733 7.00332 16.6382L6.91237 18.6361ZM10.0212 18.6821C12.0437 18.6821 12.315 18.6737 13.1305 18.6361L13.0385 16.6382C12.2693 16.6736 12.0343 16.6821 10.0212 16.6821V18.6821ZM13.1043 18.637C13.8339 18.6226 14.5557 18.4845 15.2391 18.2286L14.5378 16.3556C14.0662 16.5321 13.5682 16.6274 13.0648 16.6374L13.1043 18.637ZM15.2491 18.2248C15.8726 17.9837 16.4389 17.6149 16.9117 17.1422L15.4975 15.728C15.2217 16.0037 14.8915 16.2187 14.5278 16.3594L15.2491 18.2248ZM16.9117 17.1422C17.3844 16.6694 17.7532 16.1031 17.9943 15.4796L16.1289 14.7583C15.9882 15.122 15.7732 15.4523 15.4975 15.728L16.9117 17.1422ZM17.9979 15.4701C18.2543 14.7865 18.3925 14.0642 18.4065 13.3342L16.4069 13.2958C16.3972 13.7989 16.302 14.2966 16.1253 14.7678L17.9979 15.4701ZM18.4056 13.3605C18.4428 12.5448 18.451 12.2741 18.451 10.2517H16.451C16.451 12.265 16.4427 12.4997 16.4077 13.2696L18.4056 13.3605ZM18.451 10.2517C18.451 8.22906 18.4426 7.95816 18.4056 7.14311L16.4077 7.23359C16.4426 8.00324 16.451 8.23862 16.451 10.2517H18.451ZM18.4065 7.16869C18.3921 6.43903 18.254 5.7171 17.998 5.03367L16.1251 5.73518C16.3017 6.20664 16.397 6.70466 16.4069 7.20801L18.4065 7.16869ZM17.9943 5.02374C17.7532 4.40033 17.3845 3.83414 16.912 3.36144L15.4976 4.77546C15.7732 5.05119 15.9883 5.38146 16.1289 5.74511L17.9943 5.02374ZM16.912 3.36144C16.4394 2.88874 15.8733 2.51995 15.25 2.2787L14.5281 4.14388C14.8917 4.2846 15.2219 4.49972 15.4976 4.77546L16.912 3.36144ZM15.24 2.2749C14.5565 2.0187 13.8344 1.88056 13.1045 1.86638L13.0657 3.866C13.5689 3.87578 14.0668 3.97102 14.538 4.14767L15.24 2.2749ZM13.1308 1.86724C12.3156 1.82992 12.0446 1.82129 10.0222 1.82129V3.82129C12.0347 3.82129 12.2699 3.82992 13.0394 3.86515L13.1308 1.86724ZM10.0222 1.82129C7.99999 1.82129 7.72816 1.82971 6.91228 1.86725L7.00419 3.86514C7.77381 3.82973 8.00943 3.82129 10.0222 3.82129V1.82129Z" fill="white" mask="url(#path-3-inside-1_544_1096)"/>
</g>
<defs>
<radialGradient id="paint0_radial_544_1096" cx="0" cy="0" r="1" gradientUnits="userSpaceOnUse" gradientTransform="translate(1.29431 19.7705) scale(25.3925)">
<stop offset="0.09" stop-color="#FA8F21"/>
<stop offset="0.78" stop-color="#D82D7E"/>
</radialGradient>
<radialGradient id="paint1_radial_544_1096" cx="0" cy="0" r="1" gradientUnits="userSpaceOnUse" gradientTransform="translate(13.8533 19.1281) scale(22.3457)">
<stop offset="0.64" stop-color="#8C3AAA" stop-opacity="0"/>
<stop offset="1" stop-color="#8C3AAA"/>
</radialGradient>
<clipPath id="clip0_544_1096">
<rect width="20" height="20" fill="white" transform="translate(0 0.208496)"/>
</clipPath>
</defs>
</svg>
