<svg width="281" height="281" viewBox="0 0 281 281" fill="none" xmlns="http://www.w3.org/2000/svg">
<circle cx="140.5" cy="140.208" r="140" fill="#FFE8BC"/>
<mask id="mask0_1211_22496" style="mask-type:alpha" maskUnits="userSpaceOnUse" x="0" y="0" width="281" height="281">
<circle cx="140.5" cy="140.208" r="140" fill="#FFE8BC"/>
</mask>
<g mask="url(#mask0_1211_22496)">
<g filter="url(#filter0_d_1211_22496)">
<rect x="64.5" y="40.2085" width="152" height="240" rx="13.3784" fill="white" shape-rendering="crispEdges"/>
<path d="M118.676 60.4946C118.703 60.9829 118.818 61.3794 119.021 61.6841C119.408 62.2544 120.09 62.5396 121.066 62.5396C121.504 62.5396 121.902 62.4771 122.262 62.3521C122.957 62.1099 123.305 61.6763 123.305 61.0513C123.305 60.5825 123.158 60.2485 122.865 60.0493C122.568 59.854 122.104 59.6841 121.471 59.5396L120.305 59.2759C119.543 59.104 119.004 58.9146 118.688 58.7075C118.141 58.3481 117.867 57.811 117.867 57.0962C117.867 56.3228 118.135 55.688 118.67 55.1919C119.205 54.6958 119.963 54.4478 120.943 54.4478C121.846 54.4478 122.611 54.6665 123.24 55.104C123.873 55.5376 124.189 56.2329 124.189 57.1899H123.094C123.035 56.729 122.91 56.3755 122.719 56.1294C122.363 55.6802 121.76 55.4556 120.908 55.4556C120.221 55.4556 119.727 55.6001 119.426 55.8892C119.125 56.1782 118.975 56.5142 118.975 56.897C118.975 57.3188 119.15 57.6274 119.502 57.8228C119.732 57.9478 120.254 58.104 121.066 58.2915L122.273 58.5669C122.855 58.6997 123.305 58.8813 123.621 59.1118C124.168 59.5142 124.441 60.0981 124.441 60.8638C124.441 61.8169 124.094 62.4985 123.398 62.9087C122.707 63.3188 121.902 63.5239 120.984 63.5239C119.914 63.5239 119.076 63.2505 118.471 62.7036C117.865 62.1606 117.568 61.4243 117.58 60.4946H118.676ZM125.988 55.2446H127.055V56.9966H128.057V57.8579H127.055V61.9536C127.055 62.1724 127.129 62.3188 127.277 62.3931C127.359 62.436 127.496 62.4575 127.688 62.4575C127.738 62.4575 127.793 62.4575 127.852 62.4575C127.91 62.4536 127.979 62.4478 128.057 62.4399V63.272C127.936 63.3071 127.809 63.3325 127.676 63.3481C127.547 63.3638 127.406 63.3716 127.254 63.3716C126.762 63.3716 126.428 63.2466 126.252 62.9966C126.076 62.7427 125.988 62.4146 125.988 62.0122V57.8579H125.139V56.9966H125.988V55.2446ZM131.607 62.5923C132.307 62.5923 132.785 62.3286 133.043 61.8013C133.305 61.27 133.436 60.6802 133.436 60.0317C133.436 59.4458 133.342 58.9692 133.154 58.6021C132.857 58.0239 132.346 57.7349 131.619 57.7349C130.975 57.7349 130.506 57.981 130.213 58.4731C129.92 58.9653 129.773 59.5591 129.773 60.2544C129.773 60.9224 129.92 61.479 130.213 61.9243C130.506 62.3696 130.971 62.5923 131.607 62.5923ZM131.648 56.8149C132.457 56.8149 133.141 57.0845 133.699 57.6235C134.258 58.1626 134.537 58.9556 134.537 60.0024C134.537 61.0142 134.291 61.8501 133.799 62.5103C133.307 63.1704 132.543 63.5005 131.508 63.5005C130.645 63.5005 129.959 63.2095 129.451 62.6274C128.943 62.0415 128.689 61.2563 128.689 60.272C128.689 59.2173 128.957 58.3774 129.492 57.7524C130.027 57.1274 130.746 56.8149 131.648 56.8149ZM135.826 56.9966H136.828V58.0806C136.91 57.8696 137.111 57.6138 137.432 57.313C137.752 57.0083 138.121 56.856 138.539 56.856C138.559 56.856 138.592 56.8579 138.639 56.8618C138.686 56.8657 138.766 56.8735 138.879 56.8853V57.9985C138.816 57.9868 138.758 57.979 138.703 57.9751C138.652 57.9712 138.596 57.9692 138.533 57.9692C138.002 57.9692 137.594 58.1411 137.309 58.4849C137.023 58.8247 136.881 59.2173 136.881 59.6626V63.272H135.826V56.9966ZM140.602 61.6021C140.602 61.9067 140.713 62.147 140.936 62.3228C141.158 62.4985 141.422 62.5864 141.727 62.5864C142.098 62.5864 142.457 62.5005 142.805 62.3286C143.391 62.0435 143.684 61.5767 143.684 60.9282V60.0786C143.555 60.1606 143.389 60.229 143.186 60.2837C142.982 60.3384 142.783 60.3774 142.588 60.4009L141.949 60.4829C141.566 60.5337 141.279 60.6138 141.088 60.7231C140.764 60.9067 140.602 61.1997 140.602 61.6021ZM143.156 59.4692C143.398 59.438 143.561 59.3364 143.643 59.1646C143.689 59.0708 143.713 58.936 143.713 58.7603C143.713 58.4009 143.584 58.1411 143.326 57.981C143.072 57.8169 142.707 57.7349 142.23 57.7349C141.68 57.7349 141.289 57.8833 141.059 58.1802C140.93 58.3442 140.846 58.5884 140.807 58.9126H139.822C139.842 58.1392 140.092 57.6021 140.572 57.3013C141.057 56.9966 141.617 56.8442 142.254 56.8442C142.992 56.8442 143.592 56.9849 144.053 57.2661C144.51 57.5474 144.738 57.9849 144.738 58.5786V62.1938C144.738 62.3032 144.76 62.3911 144.803 62.4575C144.85 62.5239 144.945 62.5571 145.09 62.5571C145.137 62.5571 145.189 62.5552 145.248 62.5513C145.307 62.5435 145.369 62.5337 145.436 62.522V63.3013C145.271 63.3481 145.146 63.3774 145.061 63.3892C144.975 63.4009 144.857 63.4067 144.709 63.4067C144.346 63.4067 144.082 63.2778 143.918 63.02C143.832 62.8833 143.771 62.6899 143.736 62.4399C143.521 62.7212 143.213 62.9653 142.811 63.1724C142.408 63.3794 141.965 63.4829 141.48 63.4829C140.898 63.4829 140.422 63.3071 140.051 62.9556C139.684 62.6001 139.5 62.1567 139.5 61.6255C139.5 61.0435 139.682 60.5923 140.045 60.272C140.408 59.9517 140.885 59.7544 141.475 59.6802L143.156 59.4692ZM146.502 54.6646H147.557V63.272H146.502V54.6646ZM149.145 57.0259H150.217V63.272H149.145V57.0259ZM149.145 54.6646H150.217V55.8599H149.145V54.6646ZM151.816 56.9966H152.818V57.8872C153.115 57.52 153.43 57.2563 153.762 57.0962C154.094 56.936 154.463 56.856 154.869 56.856C155.76 56.856 156.361 57.1665 156.674 57.7876C156.846 58.1274 156.932 58.6138 156.932 59.2466V63.272H155.859V59.3169C155.859 58.9341 155.803 58.6255 155.689 58.3911C155.502 58.0005 155.162 57.8052 154.67 57.8052C154.42 57.8052 154.215 57.8306 154.055 57.8813C153.766 57.9673 153.512 58.1392 153.293 58.397C153.117 58.604 153.002 58.8188 152.947 59.0415C152.896 59.2603 152.871 59.5747 152.871 59.9849V63.272H151.816V56.9966ZM158.473 54.6646H159.486V59.6626L162.193 56.9966H163.541L161.139 59.3462L163.676 63.272H162.328L160.371 60.1079L159.486 60.9165V63.272H158.473V54.6646Z" fill="#FF9900"/>
<rect x="76.5635" y="80.748" width="127.873" height="27" rx="4" fill="#FF9900"/>
<rect x="76.5635" y="122.224" width="50.6667" height="13.2698" rx="6.63492" fill="#E98D04"/>
<rect x="76.5635" y="139.494" width="53.2265" height="75.4042" rx="4" fill="#FFC56D"/>
<rect x="134.79" y="139.494" width="54.3354" height="75.4042" rx="4" fill="#FFC56D"/>
<path d="M194.125 147.494C194.125 143.723 194.125 141.837 195.297 140.666C196.468 139.494 198.354 139.494 202.125 139.494H216.125V215.494H202.125C198.354 215.494 196.468 215.494 195.297 214.323C194.125 213.151 194.125 211.265 194.125 207.494V147.494Z" fill="#FFC56D"/>
<rect x="76.5635" y="229.97" width="50.6667" height="13.2698" rx="6.63492" fill="#E98D04"/>
<rect x="76.5635" y="247.24" width="127.873" height="27" rx="4" fill="#FFC56D"/>
<rect x="76.5635" y="278.24" width="127.873" height="27" rx="8" fill="white"/>
</g>
</g>
<defs>
<filter id="filter0_d_1211_22496" x="25.8968" y="1.60533" width="256.571" height="400.841" filterUnits="userSpaceOnUse" color-interpolation-filters="sRGB">
<feFlood flood-opacity="0" result="BackgroundImageFix"/>
<feColorMatrix in="SourceAlpha" type="matrix" values="0 0 0 0 0 0 0 0 0 0 0 0 0 0 0 0 0 0 127 0" result="hardAlpha"/>
<feOffset dx="9.65079" dy="9.65079"/>
<feGaussianBlur stdDeviation="24.127"/>
<feComposite in2="hardAlpha" operator="out"/>
<feColorMatrix type="matrix" values="0 0 0 0 1 0 0 0 0 0.66 0 0 0 0 0 0 0 0 0.2 0"/>
<feBlend mode="normal" in2="BackgroundImageFix" result="effect1_dropShadow_1211_22496"/>
<feBlend mode="normal" in="SourceGraphic" in2="effect1_dropShadow_1211_22496" result="shape"/>
</filter>
</defs>
</svg>
