<svg width="283" height="330" viewBox="0 0 283 330" fill="none" xmlns="http://www.w3.org/2000/svg">
<circle cx="140.5" cy="157.208" r="140" fill="#FFE8BC"/>
<g filter="url(#filter0_d_775_11989)">
<rect x="45.5" y="32.2085" width="189" height="249" rx="24" fill="white"/>
<rect x="46" y="32.7085" width="188" height="248" rx="23.5" stroke="#E98D04"/>
<mask id="mask0_775_11989" style="mask-type:alpha" maskUnits="userSpaceOnUse" x="100" y="92" width="80" height="81">
<rect x="103" y="95.2085" width="74" height="74" fill="white" stroke="#FF9900" stroke-width="6"/>
</mask>
<g mask="url(#mask0_775_11989)">
<path d="M140 131.977C141.062 130.558 142.417 129.383 143.973 128.533C145.528 127.683 147.249 127.177 149.017 127.051C150.785 126.924 152.56 127.179 154.221 127.799C155.882 128.418 157.391 129.388 158.644 130.642L166.062 138.06C168.315 140.392 169.561 143.515 169.533 146.757C169.504 149.998 168.204 153.099 165.912 155.391C163.619 157.684 160.519 158.984 157.277 159.012C154.035 159.04 150.912 157.794 148.58 155.542L144.327 151.314" stroke="#FF9900" stroke-width="6" stroke-linecap="round" stroke-linejoin="round"/>
<path d="M140 131.977C138.938 133.397 137.583 134.571 136.027 135.421C134.472 136.271 132.751 136.777 130.983 136.903C129.215 137.03 127.44 136.775 125.779 136.155C124.118 135.536 122.609 134.566 121.356 133.312L113.938 125.894C111.685 123.562 110.439 120.439 110.467 117.198C110.496 113.956 111.796 110.855 114.088 108.563C116.381 106.27 119.481 104.97 122.723 104.942C125.965 104.914 129.088 106.16 131.42 108.412L135.648 112.64" stroke="#FF9900" stroke-width="6" stroke-linecap="round" stroke-linejoin="round"/>
<path d="M133.006 124.983L146.994 138.971" stroke="#FF9900" stroke-width="6" stroke-linecap="round" stroke-linejoin="round"/>
</g>
<path d="M81.9688 206.802C82.0417 208.104 82.349 209.162 82.8906 209.974C83.9219 211.495 85.7396 212.255 88.3438 212.255C89.5104 212.255 90.5729 212.089 91.5312 211.755C93.3854 211.11 94.3125 209.953 94.3125 208.287C94.3125 207.037 93.9219 206.146 93.1406 205.615C92.349 205.094 91.1094 204.641 89.4219 204.255L86.3125 203.552C84.2812 203.094 82.8438 202.589 82 202.037C80.5417 201.078 79.8125 199.646 79.8125 197.74C79.8125 195.677 80.526 193.985 81.9531 192.662C83.3802 191.339 85.401 190.677 88.0156 190.677C90.4219 190.677 92.4635 191.261 94.1406 192.427C95.8281 193.583 96.6719 195.438 96.6719 197.99H93.75C93.5938 196.761 93.2604 195.818 92.75 195.162C91.8021 193.964 90.1927 193.365 87.9219 193.365C86.0885 193.365 84.7708 193.75 83.9688 194.521C83.1667 195.292 82.7656 196.188 82.7656 197.208C82.7656 198.333 83.2344 199.156 84.1719 199.677C84.7865 200.011 86.1771 200.427 88.3438 200.927L91.5625 201.662C93.1146 202.016 94.3125 202.5 95.1562 203.115C96.6146 204.188 97.3438 205.745 97.3438 207.787C97.3438 210.328 96.4167 212.146 94.5625 213.24C92.7188 214.333 90.5729 214.88 88.125 214.88C85.2708 214.88 83.0365 214.151 81.4219 212.693C79.8073 211.245 79.0156 209.281 79.0469 206.802H81.9688ZM101.469 192.802H104.312V197.474H106.984V199.771H104.312V210.693C104.312 211.276 104.51 211.667 104.906 211.865C105.125 211.979 105.49 212.037 106 212.037C106.135 212.037 106.281 212.037 106.438 212.037C106.594 212.026 106.776 212.011 106.984 211.99V214.208C106.661 214.302 106.323 214.37 105.969 214.412C105.625 214.453 105.25 214.474 104.844 214.474C103.531 214.474 102.641 214.141 102.172 213.474C101.703 212.797 101.469 211.922 101.469 210.849V199.771H99.2031V197.474H101.469V192.802ZM116.453 212.396C118.318 212.396 119.594 211.693 120.281 210.287C120.979 208.87 121.328 207.297 121.328 205.568C121.328 204.005 121.078 202.735 120.578 201.755C119.786 200.214 118.422 199.443 116.484 199.443C114.766 199.443 113.516 200.099 112.734 201.412C111.953 202.724 111.562 204.307 111.562 206.162C111.562 207.943 111.953 209.427 112.734 210.615C113.516 211.802 114.755 212.396 116.453 212.396ZM116.562 196.99C118.719 196.99 120.542 197.708 122.031 199.146C123.521 200.583 124.266 202.698 124.266 205.49C124.266 208.188 123.609 210.417 122.297 212.177C120.984 213.938 118.948 214.818 116.188 214.818C113.885 214.818 112.057 214.042 110.703 212.49C109.349 210.927 108.672 208.833 108.672 206.208C108.672 203.396 109.385 201.156 110.812 199.49C112.24 197.823 114.156 196.99 116.562 196.99ZM127.703 197.474H130.375V200.365C130.594 199.802 131.13 199.12 131.984 198.318C132.839 197.505 133.823 197.099 134.938 197.099C134.99 197.099 135.078 197.104 135.203 197.115C135.328 197.125 135.542 197.146 135.844 197.177V200.146C135.677 200.115 135.521 200.094 135.375 200.083C135.24 200.073 135.089 200.068 134.922 200.068C133.505 200.068 132.417 200.526 131.656 201.443C130.896 202.349 130.516 203.396 130.516 204.583V214.208H127.703V197.474ZM140.438 209.755C140.438 210.568 140.734 211.208 141.328 211.677C141.922 212.146 142.625 212.38 143.438 212.38C144.427 212.38 145.385 212.151 146.312 211.693C147.875 210.932 148.656 209.688 148.656 207.958V205.693C148.312 205.912 147.87 206.094 147.328 206.24C146.786 206.386 146.255 206.49 145.734 206.552L144.031 206.771C143.01 206.906 142.245 207.12 141.734 207.412C140.87 207.901 140.438 208.682 140.438 209.755ZM147.25 204.068C147.896 203.985 148.328 203.714 148.547 203.255C148.672 203.005 148.734 202.646 148.734 202.177C148.734 201.219 148.391 200.526 147.703 200.099C147.026 199.662 146.052 199.443 144.781 199.443C143.312 199.443 142.271 199.839 141.656 200.63C141.312 201.068 141.089 201.719 140.984 202.583H138.359C138.411 200.521 139.078 199.089 140.359 198.287C141.651 197.474 143.146 197.068 144.844 197.068C146.812 197.068 148.411 197.443 149.641 198.193C150.859 198.943 151.469 200.11 151.469 201.693V211.333C151.469 211.625 151.526 211.86 151.641 212.037C151.766 212.214 152.021 212.302 152.406 212.302C152.531 212.302 152.672 212.297 152.828 212.287C152.984 212.266 153.151 212.24 153.328 212.208V214.287C152.891 214.412 152.557 214.49 152.328 214.521C152.099 214.552 151.786 214.568 151.391 214.568C150.422 214.568 149.719 214.224 149.281 213.537C149.052 213.172 148.891 212.656 148.797 211.99C148.224 212.74 147.401 213.391 146.328 213.943C145.255 214.495 144.073 214.771 142.781 214.771C141.229 214.771 139.958 214.302 138.969 213.365C137.99 212.417 137.5 211.235 137.5 209.818C137.5 208.266 137.984 207.063 138.953 206.208C139.922 205.354 141.193 204.828 142.766 204.63L147.25 204.068ZM156.172 191.255H158.984V214.208H156.172V191.255ZM163.219 197.552H166.078V214.208H163.219V197.552ZM163.219 191.255H166.078V194.443H163.219V191.255ZM170.344 197.474H173.016V199.849C173.807 198.87 174.646 198.167 175.531 197.74C176.417 197.313 177.401 197.099 178.484 197.099C180.859 197.099 182.464 197.927 183.297 199.583C183.755 200.49 183.984 201.787 183.984 203.474V214.208H181.125V203.662C181.125 202.641 180.974 201.818 180.672 201.193C180.172 200.151 179.266 199.63 177.953 199.63C177.286 199.63 176.74 199.698 176.312 199.833C175.542 200.063 174.865 200.521 174.281 201.208C173.812 201.761 173.505 202.333 173.359 202.927C173.224 203.511 173.156 204.349 173.156 205.443V214.208H170.344V197.474ZM188.094 191.255H190.797V204.583L198.016 197.474H201.609L195.203 203.74L201.969 214.208H198.375L193.156 205.771L190.797 207.927V214.208H188.094V191.255Z" fill="#FF9900"/>
</g>
<defs>
<filter id="filter0_d_775_11989" x="13.5" y="0.208496" width="269" height="329" filterUnits="userSpaceOnUse" color-interpolation-filters="sRGB">
<feFlood flood-opacity="0" result="BackgroundImageFix"/>
<feColorMatrix in="SourceAlpha" type="matrix" values="0 0 0 0 0 0 0 0 0 0 0 0 0 0 0 0 0 0 127 0" result="hardAlpha"/>
<feOffset dx="8" dy="8"/>
<feGaussianBlur stdDeviation="20"/>
<feComposite in2="hardAlpha" operator="out"/>
<feColorMatrix type="matrix" values="0 0 0 0 1 0 0 0 0 0.66 0 0 0 0 0 0 0 0 0.2 0"/>
<feBlend mode="normal" in2="BackgroundImageFix" result="effect1_dropShadow_775_11989"/>
<feBlend mode="normal" in="SourceGraphic" in2="effect1_dropShadow_775_11989" result="shape"/>
</filter>
</defs>
</svg>
