<svg width="281" height="359" viewBox="0 0 281 359" fill="none" xmlns="http://www.w3.org/2000/svg">
<circle cx="140.5" cy="169.208" r="140" fill="#FFE8BC"/>
<g filter="url(#filter0_d_757_11549)">
<rect x="64.5" y="38.6211" width="152" height="262" rx="13.3784" fill="white"/>
<path d="M118.676 58.9072C118.703 59.3955 118.818 59.792 119.021 60.0967C119.408 60.667 120.09 60.9521 121.066 60.9521C121.504 60.9521 121.902 60.8896 122.262 60.7646C122.957 60.5225 123.305 60.0889 123.305 59.4639C123.305 58.9951 123.158 58.6611 122.865 58.4619C122.568 58.2666 122.104 58.0967 121.471 57.9521L120.305 57.6885C119.543 57.5166 119.004 57.3271 118.688 57.1201C118.141 56.7607 117.867 56.2236 117.867 55.5088C117.867 54.7354 118.135 54.1006 118.67 53.6045C119.205 53.1084 119.963 52.8604 120.943 52.8604C121.846 52.8604 122.611 53.0791 123.24 53.5166C123.873 53.9502 124.189 54.6455 124.189 55.6025H123.094C123.035 55.1416 122.91 54.7881 122.719 54.542C122.363 54.0928 121.76 53.8682 120.908 53.8682C120.221 53.8682 119.727 54.0127 119.426 54.3018C119.125 54.5908 118.975 54.9268 118.975 55.3096C118.975 55.7314 119.15 56.04 119.502 56.2354C119.732 56.3604 120.254 56.5166 121.066 56.7041L122.273 56.9795C122.855 57.1123 123.305 57.2939 123.621 57.5244C124.168 57.9268 124.441 58.5107 124.441 59.2764C124.441 60.2295 124.094 60.9111 123.398 61.3213C122.707 61.7314 121.902 61.9365 120.984 61.9365C119.914 61.9365 119.076 61.6631 118.471 61.1162C117.865 60.5732 117.568 59.8369 117.58 58.9072H118.676ZM125.988 53.6572H127.055V55.4092H128.057V56.2705H127.055V60.3662C127.055 60.585 127.129 60.7314 127.277 60.8057C127.359 60.8486 127.496 60.8701 127.688 60.8701C127.738 60.8701 127.793 60.8701 127.852 60.8701C127.91 60.8662 127.979 60.8604 128.057 60.8525V61.6846C127.936 61.7197 127.809 61.7451 127.676 61.7607C127.547 61.7764 127.406 61.7842 127.254 61.7842C126.762 61.7842 126.428 61.6592 126.252 61.4092C126.076 61.1553 125.988 60.8271 125.988 60.4248V56.2705H125.139V55.4092H125.988V53.6572ZM131.607 61.0049C132.307 61.0049 132.785 60.7412 133.043 60.2139C133.305 59.6826 133.436 59.0928 133.436 58.4443C133.436 57.8584 133.342 57.3818 133.154 57.0146C132.857 56.4365 132.346 56.1475 131.619 56.1475C130.975 56.1475 130.506 56.3936 130.213 56.8857C129.92 57.3779 129.773 57.9717 129.773 58.667C129.773 59.335 129.92 59.8916 130.213 60.3369C130.506 60.7822 130.971 61.0049 131.607 61.0049ZM131.648 55.2275C132.457 55.2275 133.141 55.4971 133.699 56.0361C134.258 56.5752 134.537 57.3682 134.537 58.415C134.537 59.4268 134.291 60.2627 133.799 60.9229C133.307 61.583 132.543 61.9131 131.508 61.9131C130.645 61.9131 129.959 61.6221 129.451 61.04C128.943 60.4541 128.689 59.6689 128.689 58.6846C128.689 57.6299 128.957 56.79 129.492 56.165C130.027 55.54 130.746 55.2275 131.648 55.2275ZM135.826 55.4092H136.828V56.4932C136.91 56.2822 137.111 56.0264 137.432 55.7256C137.752 55.4209 138.121 55.2686 138.539 55.2686C138.559 55.2686 138.592 55.2705 138.639 55.2744C138.686 55.2783 138.766 55.2861 138.879 55.2979V56.4111C138.816 56.3994 138.758 56.3916 138.703 56.3877C138.652 56.3838 138.596 56.3818 138.533 56.3818C138.002 56.3818 137.594 56.5537 137.309 56.8975C137.023 57.2373 136.881 57.6299 136.881 58.0752V61.6846H135.826V55.4092ZM140.602 60.0146C140.602 60.3193 140.713 60.5596 140.936 60.7354C141.158 60.9111 141.422 60.999 141.727 60.999C142.098 60.999 142.457 60.9131 142.805 60.7412C143.391 60.4561 143.684 59.9893 143.684 59.3408V58.4912C143.555 58.5732 143.389 58.6416 143.186 58.6963C142.982 58.751 142.783 58.79 142.588 58.8135L141.949 58.8955C141.566 58.9463 141.279 59.0264 141.088 59.1357C140.764 59.3193 140.602 59.6123 140.602 60.0146ZM143.156 57.8818C143.398 57.8506 143.561 57.749 143.643 57.5771C143.689 57.4834 143.713 57.3486 143.713 57.1729C143.713 56.8135 143.584 56.5537 143.326 56.3936C143.072 56.2295 142.707 56.1475 142.23 56.1475C141.68 56.1475 141.289 56.2959 141.059 56.5928C140.93 56.7568 140.846 57.001 140.807 57.3252H139.822C139.842 56.5518 140.092 56.0146 140.572 55.7139C141.057 55.4092 141.617 55.2568 142.254 55.2568C142.992 55.2568 143.592 55.3975 144.053 55.6787C144.51 55.96 144.738 56.3975 144.738 56.9912V60.6064C144.738 60.7158 144.76 60.8037 144.803 60.8701C144.85 60.9365 144.945 60.9697 145.09 60.9697C145.137 60.9697 145.189 60.9678 145.248 60.9639C145.307 60.9561 145.369 60.9463 145.436 60.9346V61.7139C145.271 61.7607 145.146 61.79 145.061 61.8018C144.975 61.8135 144.857 61.8193 144.709 61.8193C144.346 61.8193 144.082 61.6904 143.918 61.4326C143.832 61.2959 143.771 61.1025 143.736 60.8525C143.521 61.1338 143.213 61.3779 142.811 61.585C142.408 61.792 141.965 61.8955 141.48 61.8955C140.898 61.8955 140.422 61.7197 140.051 61.3682C139.684 61.0127 139.5 60.5693 139.5 60.0381C139.5 59.4561 139.682 59.0049 140.045 58.6846C140.408 58.3643 140.885 58.167 141.475 58.0928L143.156 57.8818ZM146.502 53.0771H147.557V61.6846H146.502V53.0771ZM149.145 55.4385H150.217V61.6846H149.145V55.4385ZM149.145 53.0771H150.217V54.2725H149.145V53.0771ZM151.816 55.4092H152.818V56.2998C153.115 55.9326 153.43 55.6689 153.762 55.5088C154.094 55.3486 154.463 55.2686 154.869 55.2686C155.76 55.2686 156.361 55.5791 156.674 56.2002C156.846 56.54 156.932 57.0264 156.932 57.6592V61.6846H155.859V57.7295C155.859 57.3467 155.803 57.0381 155.689 56.8037C155.502 56.4131 155.162 56.2178 154.67 56.2178C154.42 56.2178 154.215 56.2432 154.055 56.2939C153.766 56.3799 153.512 56.5518 153.293 56.8096C153.117 57.0166 153.002 57.2314 152.947 57.4541C152.896 57.6729 152.871 57.9873 152.871 58.3975V61.6846H151.816V55.4092ZM158.473 53.0771H159.486V58.0752L162.193 55.4092H163.541L161.139 57.7588L163.676 61.6846H162.328L160.371 58.5205L159.486 59.3291V61.6846H158.473V53.0771Z" fill="#FF9900"/>
<rect x="76.5635" y="79.1606" width="50.6667" height="13.2698" rx="6.63492" fill="#E98D04"/>
<rect x="76.5635" y="97.2559" width="127.873" height="28.9524" rx="4.8254" fill="#FFC56D"/>
<rect x="76.5635" y="140.685" width="50.6667" height="13.2698" rx="6.63492" fill="#E98D04"/>
<rect x="76.5635" y="158.78" width="127.873" height="28.9524" rx="4.8254" fill="#FFC56D"/>
<rect x="76.5635" y="202.208" width="50.6667" height="13.2698" rx="6.63492" fill="#E98D04"/>
<rect x="76.5635" y="220.304" width="127.873" height="28.9524" rx="4.8254" fill="#FFC56D"/>
<rect x="76.5635" y="263.732" width="127.873" height="24.8254" rx="4.8254" fill="#FF9900"/>
<path d="M126.736 275.409C128.298 276.971 128.298 279.499 126.736 281.055C125.173 282.61 122.646 282.617 121.09 281.055C119.534 279.492 119.528 276.964 121.09 275.409" stroke="white" stroke-width="1.20635" stroke-linecap="round" stroke-linejoin="round"/>
<path d="M125.021 277.124C123.396 275.499 123.396 272.86 125.021 271.228C126.646 269.596 129.285 269.603 130.917 271.228C132.549 272.853 132.542 275.492 130.917 277.124" stroke="white" stroke-width="1.20635" stroke-linecap="round" stroke-linejoin="round"/>
<path d="M146.221 277.03L144.696 272.593L143.076 277.03H146.221ZM143.985 271.103H145.523L149.167 281.145H147.677L146.658 278.137H142.687L141.6 281.145H140.205L143.985 271.103ZM151.02 277.57C151.02 278.354 151.186 279.01 151.519 279.539C151.851 280.067 152.384 280.332 153.118 280.332C153.688 280.332 154.155 280.088 154.52 279.6C154.889 279.108 155.073 278.404 155.073 277.488C155.073 276.563 154.884 275.879 154.506 275.437C154.128 274.99 153.66 274.767 153.104 274.767C152.485 274.767 151.981 275.004 151.594 275.478C151.211 275.952 151.02 276.649 151.02 277.57ZM152.872 273.694C153.433 273.694 153.902 273.812 154.28 274.049C154.499 274.186 154.747 274.425 155.025 274.767V271.069H156.208V281.145H155.101V280.126C154.813 280.578 154.474 280.903 154.082 281.104C153.69 281.305 153.241 281.405 152.735 281.405C151.92 281.405 151.213 281.063 150.616 280.379C150.019 279.691 149.721 278.778 149.721 277.638C149.721 276.572 149.992 275.649 150.534 274.87C151.081 274.086 151.86 273.694 152.872 273.694ZM158.812 277.57C158.812 278.354 158.979 279.01 159.312 279.539C159.644 280.067 160.177 280.332 160.911 280.332C161.481 280.332 161.948 280.088 162.312 279.6C162.682 279.108 162.866 278.404 162.866 277.488C162.866 276.563 162.677 275.879 162.299 275.437C161.921 274.99 161.453 274.767 160.897 274.767C160.278 274.767 159.774 275.004 159.387 275.478C159.004 275.952 158.812 276.649 158.812 277.57ZM160.665 273.694C161.226 273.694 161.695 273.812 162.073 274.049C162.292 274.186 162.54 274.425 162.818 274.767V271.069H164.001V281.145H162.894V280.126C162.606 280.578 162.267 280.903 161.875 281.104C161.483 281.305 161.034 281.405 160.528 281.405C159.713 281.405 159.006 281.063 158.409 280.379C157.812 279.691 157.514 278.778 157.514 277.638C157.514 276.572 157.785 275.649 158.327 274.87C158.874 274.086 159.653 273.694 160.665 273.694Z" fill="white"/>
</g>
<defs>
<filter id="filter0_d_757_11549" x="25.8968" y="0.0179234" width="248.508" height="358.508" filterUnits="userSpaceOnUse" color-interpolation-filters="sRGB">
<feFlood flood-opacity="0" result="BackgroundImageFix"/>
<feColorMatrix in="SourceAlpha" type="matrix" values="0 0 0 0 0 0 0 0 0 0 0 0 0 0 0 0 0 0 127 0" result="hardAlpha"/>
<feOffset dx="9.65079" dy="9.65079"/>
<feGaussianBlur stdDeviation="24.127"/>
<feComposite in2="hardAlpha" operator="out"/>
<feColorMatrix type="matrix" values="0 0 0 0 1 0 0 0 0 0.66 0 0 0 0 0 0 0 0 0.2 0"/>
<feBlend mode="normal" in2="BackgroundImageFix" result="effect1_dropShadow_757_11549"/>
<feBlend mode="normal" in="SourceGraphic" in2="effect1_dropShadow_757_11549" result="shape"/>
</filter>
</defs>
</svg>
