<svg width="281" height="281" viewBox="0 0 281 281" fill="none" xmlns="http://www.w3.org/2000/svg">
<circle cx="140.5" cy="140.208" r="140" fill="#FFE8BC"/>
<mask id="mask0_1221_2244" style="mask-type:alpha" maskUnits="userSpaceOnUse" x="0" y="0" width="281" height="281">
<circle cx="140.5" cy="140.208" r="140" fill="#FFE8BC"/>
</mask>
<g mask="url(#mask0_1221_2244)">
<g filter="url(#filter0_d_1221_2244)">
<rect x="64.5" y="40.2085" width="152.127" height="263.127" rx="13.3784" fill="white" shape-rendering="crispEdges"/>
<circle cx="85.5635" cy="61.272" r="9" fill="#FF9900"/>
<rect x="131.563" y="52.272" width="51" height="18" rx="4.8254" fill="#FFC56D"/>
<rect x="184.563" y="52.272" width="18" height="18" rx="4.8254" fill="#FF9900"/>
<rect x="76.5635" y="78.272" width="128" height="213" rx="4.8254" fill="#E98D04"/>
<g clip-path="url(#clip0_1221_2244)">
<mask id="path-8-inside-1_1221_2244" fill="white">
<path d="M64.5 203.208H216.5V276.448C216.5 289.063 216.5 295.371 212.581 299.29C208.662 303.208 202.355 303.208 189.74 303.208H91.26C78.6452 303.208 72.3378 303.208 68.4189 299.29C64.5 295.371 64.5 289.063 64.5 276.448V203.208Z"/>
</mask>
<path d="M64.5 203.208H216.5V276.448C216.5 289.063 216.5 295.371 212.581 299.29C208.662 303.208 202.355 303.208 189.74 303.208H91.26C78.6452 303.208 72.3378 303.208 68.4189 299.29C64.5 295.371 64.5 289.063 64.5 276.448V203.208Z" fill="white"/>
<path d="M78.1758 223.431C78.2031 223.919 78.3184 224.316 78.5215 224.621C78.9082 225.191 79.5898 225.476 80.5664 225.476C81.0039 225.476 81.4023 225.414 81.7617 225.289C82.457 225.046 82.8047 224.613 82.8047 223.988C82.8047 223.519 82.6582 223.185 82.3652 222.986C82.0684 222.791 81.6035 222.621 80.9707 222.476L79.8047 222.212C79.043 222.041 78.5039 221.851 78.1875 221.644C77.6406 221.285 77.3672 220.748 77.3672 220.033C77.3672 219.259 77.6348 218.625 78.1699 218.128C78.7051 217.632 79.4629 217.384 80.4434 217.384C81.3457 217.384 82.1113 217.603 82.7402 218.041C83.373 218.474 83.6895 219.169 83.6895 220.126H82.5938C82.5352 219.666 82.4102 219.312 82.2188 219.066C81.8633 218.617 81.2598 218.392 80.4082 218.392C79.7207 218.392 79.2266 218.537 78.9258 218.826C78.625 219.115 78.4746 219.451 78.4746 219.833C78.4746 220.255 78.6504 220.564 79.002 220.759C79.2324 220.884 79.7539 221.041 80.5664 221.228L81.7734 221.503C82.3555 221.636 82.8047 221.818 83.1211 222.048C83.668 222.451 83.9414 223.035 83.9414 223.8C83.9414 224.753 83.5938 225.435 82.8984 225.845C82.207 226.255 81.4023 226.46 80.4844 226.46C79.4141 226.46 78.5762 226.187 77.9707 225.64C77.3652 225.097 77.0684 224.361 77.0801 223.431H78.1758ZM85.2773 217.572H86.332V220.783C86.582 220.466 86.8066 220.244 87.0059 220.115C87.3457 219.892 87.7695 219.781 88.2773 219.781C89.1875 219.781 89.8047 220.099 90.1289 220.736C90.3047 221.083 90.3926 221.566 90.3926 222.183V226.208H89.3086V222.253C89.3086 221.792 89.25 221.455 89.1328 221.24C88.9414 220.896 88.582 220.724 88.0547 220.724C87.6172 220.724 87.2207 220.875 86.8652 221.175C86.5098 221.476 86.332 222.044 86.332 222.88V226.208H85.2773V217.572ZM92.7656 224.539C92.7656 224.843 92.877 225.083 93.0996 225.259C93.3223 225.435 93.5859 225.523 93.8906 225.523C94.2617 225.523 94.6211 225.437 94.9688 225.265C95.5547 224.98 95.8477 224.513 95.8477 223.865V223.015C95.7188 223.097 95.5527 223.166 95.3496 223.22C95.1465 223.275 94.9473 223.314 94.752 223.337L94.1133 223.419C93.7305 223.47 93.4434 223.55 93.252 223.66C92.9277 223.843 92.7656 224.136 92.7656 224.539ZM95.3203 222.406C95.5625 222.375 95.7246 222.273 95.8066 222.101C95.8535 222.007 95.877 221.873 95.877 221.697C95.877 221.337 95.748 221.078 95.4902 220.917C95.2363 220.753 94.8711 220.671 94.3945 220.671C93.8438 220.671 93.4531 220.82 93.2227 221.117C93.0938 221.281 93.0098 221.525 92.9707 221.849H91.9863C92.0059 221.076 92.2559 220.539 92.7363 220.238C93.2207 219.933 93.7812 219.781 94.418 219.781C95.1562 219.781 95.7559 219.921 96.2168 220.203C96.6738 220.484 96.9023 220.921 96.9023 221.515V225.13C96.9023 225.24 96.9238 225.328 96.9668 225.394C97.0137 225.46 97.1094 225.494 97.2539 225.494C97.3008 225.494 97.3535 225.492 97.4121 225.488C97.4707 225.48 97.5332 225.47 97.5996 225.458V226.238C97.4355 226.285 97.3105 226.314 97.2246 226.326C97.1387 226.337 97.0215 226.343 96.873 226.343C96.5098 226.343 96.2461 226.214 96.082 225.957C95.9961 225.82 95.9355 225.626 95.9004 225.376C95.6855 225.658 95.377 225.902 94.9746 226.109C94.5723 226.316 94.1289 226.419 93.6445 226.419C93.0625 226.419 92.5859 226.244 92.2148 225.892C91.8477 225.537 91.6641 225.093 91.6641 224.562C91.6641 223.98 91.8457 223.529 92.209 223.208C92.5723 222.888 93.0488 222.691 93.6387 222.617L95.3203 222.406ZM98.666 219.933H99.668V221.017C99.75 220.806 99.9512 220.55 100.271 220.25C100.592 219.945 100.961 219.792 101.379 219.792C101.398 219.792 101.432 219.794 101.479 219.798C101.525 219.802 101.605 219.81 101.719 219.822V220.935C101.656 220.923 101.598 220.916 101.543 220.912C101.492 220.908 101.436 220.906 101.373 220.906C100.842 220.906 100.434 221.078 100.148 221.421C99.8633 221.761 99.7207 222.154 99.7207 222.599V226.208H98.666V219.933ZM105.246 219.792C105.691 219.792 106.123 219.898 106.541 220.109C106.959 220.316 107.277 220.585 107.496 220.917C107.707 221.234 107.848 221.603 107.918 222.025C107.98 222.314 108.012 222.775 108.012 223.408H103.412C103.432 224.044 103.582 224.556 103.863 224.943C104.145 225.326 104.58 225.517 105.17 225.517C105.721 225.517 106.16 225.335 106.488 224.972C106.676 224.761 106.809 224.517 106.887 224.24H107.924C107.896 224.47 107.805 224.728 107.648 225.013C107.496 225.294 107.324 225.525 107.133 225.705C106.812 226.017 106.416 226.228 105.943 226.337C105.689 226.4 105.402 226.431 105.082 226.431C104.301 226.431 103.639 226.148 103.096 225.582C102.553 225.011 102.281 224.214 102.281 223.191C102.281 222.183 102.555 221.365 103.102 220.736C103.648 220.107 104.363 219.792 105.246 219.792ZM106.928 222.57C106.885 222.113 106.785 221.748 106.629 221.474C106.34 220.966 105.857 220.712 105.182 220.712C104.697 220.712 104.291 220.888 103.963 221.24C103.635 221.587 103.461 222.031 103.441 222.57H106.928ZM118.846 217.601V218.626H115.945V226.208H114.762V218.626H111.861V217.601H118.846ZM120.932 225.529C121.631 225.529 122.109 225.265 122.367 224.738C122.629 224.207 122.76 223.617 122.76 222.968C122.76 222.382 122.666 221.906 122.479 221.539C122.182 220.96 121.67 220.671 120.943 220.671C120.299 220.671 119.83 220.917 119.537 221.41C119.244 221.902 119.098 222.496 119.098 223.191C119.098 223.859 119.244 224.416 119.537 224.861C119.83 225.306 120.295 225.529 120.932 225.529ZM120.973 219.751C121.781 219.751 122.465 220.021 123.023 220.56C123.582 221.099 123.861 221.892 123.861 222.939C123.861 223.951 123.615 224.787 123.123 225.447C122.631 226.107 121.867 226.437 120.832 226.437C119.969 226.437 119.283 226.146 118.775 225.564C118.268 224.978 118.014 224.193 118.014 223.208C118.014 222.154 118.281 221.314 118.816 220.689C119.352 220.064 120.07 219.751 120.973 219.751ZM125.678 220.015H126.902V221.292H125.678V220.015ZM125.678 224.931H126.902V226.208H125.678V224.931Z" fill="#FF9900"/>
<rect x="76.5" y="233.208" width="32" height="32" rx="4" fill="#FFC56D"/>
<rect x="118.5" y="233.208" width="32" height="32" rx="4" fill="#FF9900"/>
<mask id="mask1_1221_2244" style="mask-type:alpha" maskUnits="userSpaceOnUse" x="123" y="238" width="23" height="22">
<rect x="124.633" y="239.342" width="19.7333" height="19.7333" fill="white" stroke="#FF9900" stroke-width="1.6"/>
</mask>
<g mask="url(#mask1_1221_2244)">
<path d="M134.5 249.147C134.783 248.768 135.144 248.455 135.559 248.228C135.974 248.002 136.433 247.867 136.904 247.833C137.376 247.799 137.849 247.868 138.292 248.033C138.735 248.198 139.137 248.457 139.472 248.791L141.45 250.769C142.05 251.391 142.383 252.224 142.375 253.088C142.368 253.953 142.021 254.78 141.41 255.391C140.798 256.002 139.971 256.349 139.107 256.356C138.243 256.364 137.41 256.032 136.788 255.431L135.654 254.303" stroke="white" stroke-width="1.6" stroke-linecap="round" stroke-linejoin="round"/>
<path d="M134.5 249.147C134.217 249.526 133.855 249.839 133.44 250.066C133.026 250.292 132.567 250.427 132.095 250.461C131.624 250.495 131.15 250.427 130.707 250.261C130.264 250.096 129.862 249.838 129.528 249.503L127.55 247.525C126.949 246.903 126.617 246.07 126.624 245.206C126.632 244.341 126.979 243.515 127.59 242.903C128.201 242.292 129.028 241.945 129.893 241.938C130.757 241.93 131.59 242.263 132.212 242.863L133.339 243.991" stroke="white" stroke-width="1.6" stroke-linecap="round" stroke-linejoin="round"/>
<path d="M132.635 247.282L136.365 251.012" stroke="white" stroke-width="1.6" stroke-linecap="round" stroke-linejoin="round"/>
</g>
<rect x="160.5" y="233.208" width="32" height="32" rx="4" fill="#FFC56D"/>
<rect x="202.5" y="233.208" width="32" height="32" rx="4" fill="#FFC56D"/>
</g>
<path d="M64.5 201.208H216.5V205.208H64.5V201.208ZM216.5 303.208H64.5H216.5ZM64.5 303.208V203.208V303.208ZM216.5 203.208V303.208V203.208Z" fill="#FF9900" mask="url(#path-8-inside-1_1221_2244)"/>
</g>
</g>
<defs>
<filter id="filter0_d_1221_2244" x="25.8968" y="1.60533" width="248.635" height="359.635" filterUnits="userSpaceOnUse" color-interpolation-filters="sRGB">
<feFlood flood-opacity="0" result="BackgroundImageFix"/>
<feColorMatrix in="SourceAlpha" type="matrix" values="0 0 0 0 0 0 0 0 0 0 0 0 0 0 0 0 0 0 127 0" result="hardAlpha"/>
<feOffset dx="9.65079" dy="9.65079"/>
<feGaussianBlur stdDeviation="24.127"/>
<feComposite in2="hardAlpha" operator="out"/>
<feColorMatrix type="matrix" values="0 0 0 0 1 0 0 0 0 0.66 0 0 0 0 0 0 0 0 0.2 0"/>
<feBlend mode="normal" in2="BackgroundImageFix" result="effect1_dropShadow_1221_2244"/>
<feBlend mode="normal" in="SourceGraphic" in2="effect1_dropShadow_1221_2244" result="shape"/>
</filter>
<clipPath id="clip0_1221_2244">
<path d="M64.5 203.208H216.5V276.448C216.5 289.063 216.5 295.371 212.581 299.29C208.662 303.208 202.355 303.208 189.74 303.208H91.26C78.6452 303.208 72.3378 303.208 68.4189 299.29C64.5 295.371 64.5 289.063 64.5 276.448V203.208Z" fill="white"/>
</clipPath>
</defs>
</svg>
