<svg width="362" height="282" viewBox="0 0 362 282" fill="none" xmlns="http://www.w3.org/2000/svg">
<circle cx="171.5" cy="140.208" r="140" fill="#FFE8BC"/>
<path d="M196.207 140.916C196.598 140.525 196.598 139.892 196.207 139.501L189.843 133.137C189.453 132.747 188.819 132.747 188.429 133.137C188.038 133.528 188.038 134.161 188.429 134.552L194.086 140.208L188.429 145.865C188.038 146.256 188.038 146.889 188.429 147.28C188.819 147.67 189.453 147.67 189.843 147.28L196.207 140.916ZM54.5 141.208H55.5071V139.208H54.5V141.208ZM57.5214 141.208H59.5357V139.208H57.5214V141.208ZM61.55 141.208H63.5643V139.208H61.55V141.208ZM65.5786 141.208H67.5929V139.208H65.5786V141.208ZM69.6071 141.208H71.6214V139.208H69.6071V141.208ZM73.6357 141.208H75.65V139.208H73.6357V141.208ZM77.6643 141.208H79.6786V139.208H77.6643V141.208ZM81.6929 141.208H83.7071V139.208H81.6929V141.208ZM85.7214 141.208H87.7357V139.208H85.7214V141.208ZM89.75 141.208H91.7643V139.208H89.75V141.208ZM93.7786 141.208H95.7929V139.208H93.7786V141.208ZM97.8071 141.208H99.8214V139.208H97.8071V141.208ZM101.836 141.208H103.85V139.208H101.836V141.208ZM105.864 141.208H107.879V139.208H105.864V141.208ZM109.893 141.208H111.907V139.208H109.893V141.208ZM113.921 141.208H115.936V139.208H113.921V141.208ZM117.95 141.208H119.964V139.208H117.95V141.208ZM121.979 141.208H123.993V139.208H121.979V141.208ZM126.007 141.208H128.021V139.208H126.007V141.208ZM130.036 141.208H132.05V139.208H130.036V141.208ZM134.064 141.208H136.079V139.208H134.064V141.208ZM138.093 141.208H140.107V139.208H138.093V141.208ZM142.121 141.208H144.136V139.208H142.121V141.208ZM146.15 141.208H148.164V139.208H146.15V141.208ZM150.179 141.208H152.193V139.208H150.179V141.208ZM154.207 141.208H156.221V139.208H154.207V141.208ZM158.236 141.208H160.25V139.208H158.236V141.208ZM162.264 141.208H164.279V139.208H162.264V141.208ZM166.293 141.208H168.307V139.208H166.293V141.208ZM170.321 141.208H172.336V139.208H170.321V141.208ZM174.35 141.208H176.364V139.208H174.35V141.208ZM178.378 141.208H180.393V139.208H178.378V141.208ZM182.407 141.208H184.421V139.208H182.407V141.208ZM186.436 141.208H188.45V139.208H186.436V141.208ZM190.464 141.208H192.478V139.208H190.464V141.208ZM194.493 141.208H195.5V139.208H194.493V141.208Z" fill="#E98D04"/>
<g filter="url(#filter0_d_758_11847)">
<rect x="32.5" y="118.208" width="43.9994" height="44" rx="8" fill="white"/>
<rect x="33" y="118.708" width="42.9994" height="43" rx="7.5" stroke="#FFC56D"/>
<path d="M51.9735 144.654L61.1545 148.303C61.3088 148.364 61.4735 148.387 61.6366 148.369C61.7996 148.351 61.957 148.292 62.0971 148.198C62.2373 148.103 62.3566 147.975 62.4465 147.823C62.5364 147.67 62.5945 147.498 62.6165 147.317L64.4895 131.585C64.6035 130.628 63.7105 129.913 62.9225 130.33L45.1235 139.77C44.2435 140.237 44.3095 141.648 45.2295 142.011L47.6695 142.976L48.9995 143.495M55.4995 146.054L53.5095 149.75C52.8595 150.647 51.5505 150.14 51.5505 148.991V146.032C51.5506 145.473 51.7398 144.935 52.0805 144.525L55.9515 139.858" stroke="#FF9900" stroke-width="2" stroke-linecap="round" stroke-linejoin="round"/>
</g>
<g filter="url(#filter1_d_758_11847)">
<rect x="199.5" y="57.2085" width="111" height="166" rx="12" fill="white"/>
<rect x="200" y="57.7085" width="110" height="165" rx="11.5" stroke="#FFC56D"/>
<mask id="mask0_758_11847" style="mask-type:alpha" maskUnits="userSpaceOnUse" x="239" y="117" width="32" height="33">
<rect x="240" y="118.208" width="30" height="30" fill="white" stroke="#FF9900" stroke-width="2"/>
</mask>
<g mask="url(#mask0_758_11847)">
<path d="M255 133.115C255.425 132.548 255.967 132.078 256.589 131.738C257.211 131.398 257.9 131.196 258.607 131.145C259.314 131.094 260.024 131.196 260.689 131.444C261.353 131.692 261.956 132.08 262.458 132.581L265.425 135.549C266.326 136.481 266.824 137.731 266.813 139.027C266.802 140.324 266.282 141.564 265.365 142.481C264.448 143.398 263.207 143.918 261.911 143.93C260.614 143.941 259.365 143.442 258.432 142.541L256.731 140.85" stroke="#FF9900" stroke-width="2" stroke-linecap="round" stroke-linejoin="round"/>
<path d="M255 133.115C254.575 133.683 254.033 134.153 253.411 134.493C252.789 134.833 252.101 135.035 251.393 135.086C250.686 135.137 249.976 135.035 249.311 134.787C248.647 134.539 248.044 134.151 247.542 133.65L244.575 130.682C243.674 129.75 243.176 128.5 243.187 127.204C243.198 125.907 243.718 124.667 244.635 123.75C245.552 122.833 246.793 122.313 248.089 122.301C249.386 122.29 250.635 122.789 251.568 123.689L253.259 125.381" stroke="#FF9900" stroke-width="2" stroke-linecap="round" stroke-linejoin="round"/>
<path d="M252.203 130.318L257.798 135.913" stroke="#FF9900" stroke-width="2" stroke-linecap="round" stroke-linejoin="round"/>
</g>
<path d="M225.734 164.505C225.771 165.156 225.924 165.685 226.195 166.091C226.711 166.852 227.62 167.232 228.922 167.232C229.505 167.232 230.036 167.149 230.516 166.982C231.443 166.659 231.906 166.081 231.906 165.248C231.906 164.623 231.711 164.177 231.32 163.912C230.924 163.651 230.305 163.425 229.461 163.232L227.906 162.88C226.891 162.651 226.172 162.399 225.75 162.123C225.021 161.643 224.656 160.927 224.656 159.974C224.656 158.943 225.013 158.097 225.727 157.435C226.44 156.774 227.451 156.443 228.758 156.443C229.961 156.443 230.982 156.735 231.82 157.318C232.664 157.896 233.086 158.823 233.086 160.099H231.625C231.547 159.485 231.38 159.013 231.125 158.685C230.651 158.086 229.846 157.787 228.711 157.787C227.794 157.787 227.135 157.979 226.734 158.365C226.333 158.75 226.133 159.198 226.133 159.708C226.133 160.271 226.367 160.682 226.836 160.943C227.143 161.11 227.839 161.318 228.922 161.568L230.531 161.935C231.307 162.112 231.906 162.354 232.328 162.662C233.057 163.198 233.422 163.977 233.422 164.998C233.422 166.268 232.958 167.177 232.031 167.724C231.109 168.271 230.036 168.544 228.812 168.544C227.385 168.544 226.268 168.18 225.461 167.451C224.654 166.727 224.258 165.745 224.273 164.505H225.734ZM235.484 157.505H236.906V159.841H238.242V160.99H236.906V166.451C236.906 166.742 237.005 166.938 237.203 167.037C237.312 167.094 237.495 167.123 237.75 167.123C237.818 167.123 237.891 167.123 237.969 167.123C238.047 167.117 238.138 167.11 238.242 167.099V168.208C238.081 168.255 237.911 168.289 237.734 168.31C237.562 168.331 237.375 168.341 237.172 168.341C236.516 168.341 236.07 168.175 235.836 167.841C235.602 167.503 235.484 167.065 235.484 166.529V160.99H234.352V159.841H235.484V157.505ZM242.977 167.302C243.909 167.302 244.547 166.951 244.891 166.248C245.24 165.539 245.414 164.753 245.414 163.888C245.414 163.107 245.289 162.472 245.039 161.982C244.643 161.211 243.961 160.826 242.992 160.826C242.133 160.826 241.508 161.154 241.117 161.81C240.727 162.466 240.531 163.258 240.531 164.185C240.531 165.076 240.727 165.818 241.117 166.412C241.508 167.005 242.128 167.302 242.977 167.302ZM243.031 159.599C244.109 159.599 245.021 159.958 245.766 160.677C246.51 161.396 246.883 162.453 246.883 163.849C246.883 165.198 246.555 166.313 245.898 167.193C245.242 168.073 244.224 168.513 242.844 168.513C241.693 168.513 240.779 168.125 240.102 167.349C239.424 166.568 239.086 165.521 239.086 164.208C239.086 162.802 239.443 161.682 240.156 160.849C240.87 160.016 241.828 159.599 243.031 159.599ZM248.602 159.841H249.938V161.287C250.047 161.005 250.315 160.664 250.742 160.263C251.169 159.857 251.661 159.654 252.219 159.654C252.245 159.654 252.289 159.656 252.352 159.662C252.414 159.667 252.521 159.677 252.672 159.693V161.177C252.589 161.162 252.51 161.151 252.438 161.146C252.37 161.141 252.294 161.138 252.211 161.138C251.503 161.138 250.958 161.367 250.578 161.826C250.198 162.279 250.008 162.802 250.008 163.396V168.208H248.602V159.841ZM254.969 165.982C254.969 166.388 255.117 166.708 255.414 166.943C255.711 167.177 256.062 167.294 256.469 167.294C256.964 167.294 257.443 167.18 257.906 166.951C258.688 166.57 259.078 165.948 259.078 165.083V163.951C258.906 164.06 258.685 164.151 258.414 164.224C258.143 164.297 257.878 164.349 257.617 164.38L256.766 164.49C256.255 164.557 255.872 164.664 255.617 164.81C255.185 165.055 254.969 165.445 254.969 165.982ZM258.375 163.138C258.698 163.097 258.914 162.961 259.023 162.732C259.086 162.607 259.117 162.427 259.117 162.193C259.117 161.714 258.945 161.367 258.602 161.154C258.263 160.935 257.776 160.826 257.141 160.826C256.406 160.826 255.885 161.024 255.578 161.419C255.406 161.638 255.294 161.964 255.242 162.396H253.93C253.956 161.365 254.289 160.649 254.93 160.248C255.576 159.841 256.323 159.638 257.172 159.638C258.156 159.638 258.956 159.826 259.57 160.201C260.18 160.576 260.484 161.159 260.484 161.951V166.771C260.484 166.917 260.513 167.034 260.57 167.123C260.633 167.211 260.76 167.255 260.953 167.255C261.016 167.255 261.086 167.253 261.164 167.248C261.242 167.237 261.326 167.224 261.414 167.208V168.248C261.195 168.31 261.029 168.349 260.914 168.365C260.799 168.38 260.643 168.388 260.445 168.388C259.961 168.388 259.609 168.216 259.391 167.873C259.276 167.69 259.195 167.432 259.148 167.099C258.862 167.474 258.451 167.8 257.914 168.076C257.378 168.352 256.786 168.49 256.141 168.49C255.365 168.49 254.729 168.255 254.234 167.787C253.745 167.313 253.5 166.722 253.5 166.013C253.5 165.237 253.742 164.636 254.227 164.208C254.711 163.781 255.346 163.518 256.133 163.419L258.375 163.138ZM262.836 156.732H264.242V168.208H262.836V156.732ZM266.359 159.88H267.789V168.208H266.359V159.88ZM266.359 156.732H267.789V158.326H266.359V156.732ZM269.922 159.841H271.258V161.029C271.654 160.539 272.073 160.188 272.516 159.974C272.958 159.761 273.451 159.654 273.992 159.654C275.18 159.654 275.982 160.068 276.398 160.896C276.628 161.349 276.742 161.998 276.742 162.841V168.208H275.312V162.935C275.312 162.425 275.237 162.013 275.086 161.701C274.836 161.18 274.383 160.919 273.727 160.919C273.393 160.919 273.12 160.953 272.906 161.021C272.521 161.136 272.182 161.365 271.891 161.708C271.656 161.985 271.503 162.271 271.43 162.568C271.362 162.86 271.328 163.279 271.328 163.826V168.208H269.922V159.841ZM278.797 156.732H280.148V163.396L283.758 159.841H285.555L282.352 162.974L285.734 168.208H283.938L281.328 163.99L280.148 165.068V168.208H278.797V156.732Z" fill="#FF9900"/>
</g>
<g filter="url(#filter2_d_758_11847)">
<rect x="100.5" y="128.208" width="24" height="24" rx="4" fill="white"/>
<rect x="101" y="128.708" width="23" height="23" rx="3.5" stroke="#FFC56D"/>
<path d="M113.089 139.62C114.339 140.87 114.339 142.892 113.089 144.136C111.839 145.381 109.817 145.386 108.572 144.136C107.328 142.886 107.322 140.864 108.572 139.62" stroke="#FF9900" stroke-linecap="round" stroke-linejoin="round"/>
<path d="M111.717 140.992C110.417 139.692 110.417 137.581 111.717 136.275C113.017 134.97 115.128 134.975 116.433 136.275C117.739 137.575 117.733 139.687 116.433 140.992" stroke="#FF9900" stroke-linecap="round" stroke-linejoin="round"/>
</g>
<g filter="url(#filter3_d_758_11847)">
<rect x="145.5" y="128.208" width="24" height="24" rx="4" fill="white"/>
<rect x="146" y="128.708" width="23" height="23" rx="3.5" stroke="#FFC56D"/>
<path d="M158.089 139.62C159.339 140.87 159.339 142.892 158.089 144.136C156.839 145.381 154.817 145.386 153.572 144.136C152.328 142.886 152.322 140.864 153.572 139.62" stroke="#FF9900" stroke-linecap="round" stroke-linejoin="round"/>
<path d="M156.717 140.992C155.417 139.692 155.417 137.581 156.717 136.275C158.017 134.97 160.128 134.975 161.433 136.275C162.739 137.575 162.733 139.687 161.433 140.992" stroke="#FF9900" stroke-linecap="round" stroke-linejoin="round"/>
</g>
<defs>
<filter id="filter0_d_758_11847" x="0.5" y="86.2085" width="123.999" height="124" filterUnits="userSpaceOnUse" color-interpolation-filters="sRGB">
<feFlood flood-opacity="0" result="BackgroundImageFix"/>
<feColorMatrix in="SourceAlpha" type="matrix" values="0 0 0 0 0 0 0 0 0 0 0 0 0 0 0 0 0 0 127 0" result="hardAlpha"/>
<feOffset dx="8" dy="8"/>
<feGaussianBlur stdDeviation="20"/>
<feComposite in2="hardAlpha" operator="out"/>
<feColorMatrix type="matrix" values="0 0 0 0 1 0 0 0 0 0.66 0 0 0 0 0 0 0 0 0.2 0"/>
<feBlend mode="normal" in2="BackgroundImageFix" result="effect1_dropShadow_758_11847"/>
<feBlend mode="normal" in="SourceGraphic" in2="effect1_dropShadow_758_11847" result="shape"/>
</filter>
<filter id="filter1_d_758_11847" x="160.897" y="18.6053" width="207.508" height="262.508" filterUnits="userSpaceOnUse" color-interpolation-filters="sRGB">
<feFlood flood-opacity="0" result="BackgroundImageFix"/>
<feColorMatrix in="SourceAlpha" type="matrix" values="0 0 0 0 0 0 0 0 0 0 0 0 0 0 0 0 0 0 127 0" result="hardAlpha"/>
<feOffset dx="9.65079" dy="9.65079"/>
<feGaussianBlur stdDeviation="24.127"/>
<feComposite in2="hardAlpha" operator="out"/>
<feColorMatrix type="matrix" values="0 0 0 0 1 0 0 0 0 0.66 0 0 0 0 0 0 0 0 0.2 0"/>
<feBlend mode="normal" in2="BackgroundImageFix" result="effect1_dropShadow_758_11847"/>
<feBlend mode="normal" in="SourceGraphic" in2="effect1_dropShadow_758_11847" result="shape"/>
</filter>
<filter id="filter2_d_758_11847" x="68.5" y="96.2085" width="104" height="104" filterUnits="userSpaceOnUse" color-interpolation-filters="sRGB">
<feFlood flood-opacity="0" result="BackgroundImageFix"/>
<feColorMatrix in="SourceAlpha" type="matrix" values="0 0 0 0 0 0 0 0 0 0 0 0 0 0 0 0 0 0 127 0" result="hardAlpha"/>
<feOffset dx="8" dy="8"/>
<feGaussianBlur stdDeviation="20"/>
<feComposite in2="hardAlpha" operator="out"/>
<feColorMatrix type="matrix" values="0 0 0 0 1 0 0 0 0 0.66 0 0 0 0 0 0 0 0 0.2 0"/>
<feBlend mode="normal" in2="BackgroundImageFix" result="effect1_dropShadow_758_11847"/>
<feBlend mode="normal" in="SourceGraphic" in2="effect1_dropShadow_758_11847" result="shape"/>
</filter>
<filter id="filter3_d_758_11847" x="113.5" y="96.2085" width="104" height="104" filterUnits="userSpaceOnUse" color-interpolation-filters="sRGB">
<feFlood flood-opacity="0" result="BackgroundImageFix"/>
<feColorMatrix in="SourceAlpha" type="matrix" values="0 0 0 0 0 0 0 0 0 0 0 0 0 0 0 0 0 0 127 0" result="hardAlpha"/>
<feOffset dx="8" dy="8"/>
<feGaussianBlur stdDeviation="20"/>
<feComposite in2="hardAlpha" operator="out"/>
<feColorMatrix type="matrix" values="0 0 0 0 1 0 0 0 0 0.66 0 0 0 0 0 0 0 0 0.2 0"/>
<feBlend mode="normal" in2="BackgroundImageFix" result="effect1_dropShadow_758_11847"/>
<feBlend mode="normal" in="SourceGraphic" in2="effect1_dropShadow_758_11847" result="shape"/>
</filter>
</defs>
</svg>
