<svg width="29" height="29" viewBox="0 0 29 29" fill="none" xmlns="http://www.w3.org/2000/svg">
<path d="M21.9607 19.2517L21.335 17.079C21.2101 16.5987 21.2074 15.7525 21.3312 15.2904L22.0951 12.4393C22.8047 9.79108 21.8625 7.08675 19.9068 5.41529C19.5986 4.22151 18.6889 3.28929 17.4493 2.95714C16.221 2.62801 14.9384 2.99697 14.0716 3.88799C11.5812 4.39228 9.45298 6.24973 8.75245 8.86417L7.9885 11.7153C7.8647 12.1773 7.43921 12.9088 7.09386 13.251L5.45141 14.828C4.79833 15.4623 4.47346 16.269 4.54986 17.1108C4.61801 17.9383 5.10334 18.6964 5.86176 19.2016C7.84868 20.5311 10.051 21.5077 12.3499 22.1237C14.6488 22.7397 17.0443 22.9951 19.4268 22.8484C20.2851 22.8006 21.0536 22.3664 21.555 21.6673C22.0563 20.9682 22.2069 20.0907 21.9607 19.2517Z" fill="#FF9900"/>
<path d="M15.2115 24.1104C14.3879 25.2908 12.8864 25.891 11.4214 25.4984C10.5311 25.2599 9.74877 24.6637 9.30108 23.8553C9.03105 23.4206 8.88138 22.8974 8.84741 22.3931C8.98787 22.4549 9.13135 22.5054 9.28308 22.5702C9.53321 22.6735 9.79461 22.7797 10.059 22.8747C10.6863 23.1032 11.3308 23.3121 11.9844 23.4873C12.6268 23.6594 13.2782 23.7977 13.9243 23.9104C14.167 23.9513 14.4067 24.0035 14.6411 24.03C14.8275 24.0558 15.0138 24.0816 15.2115 24.1104Z" fill="#FF9900"/>
</svg>
