<svg width="29" height="29" viewBox="0 0 29 29" fill="none" xmlns="http://www.w3.org/2000/svg">
<path d="M25.1288 14.1608L24.9421 13.9041C24.6154 13.5075 24.2304 13.1925 23.7871 12.9591C23.1921 12.6208 22.5154 12.4458 21.8154 12.4458H7.29045C6.59045 12.4458 5.92545 12.6208 5.31878 12.9591C4.86378 13.2041 4.45545 13.5425 4.11712 13.9625C3.45212 14.8141 3.13712 15.8641 3.24212 16.9141L3.67378 22.3625C3.82545 24.0075 4.02378 26.0375 7.72212 26.0375H21.3955C25.0938 26.0375 25.2804 24.0075 25.4438 22.3508L25.8754 16.9258C25.9804 15.9458 25.7238 14.9658 25.1288 14.1608Z" fill="#FF9900"/>
<path d="M24.5598 10.542C24.5923 10.9253 24.1782 11.1823 23.8167 11.0508C23.1874 10.822 22.5216 10.7076 21.8272 10.7076H7.29053C6.59237 10.7076 5.90578 10.829 5.27146 11.0596C4.91417 11.1896 4.5022 10.9426 4.5022 10.5624V8.14089C4.5022 3.97589 5.77386 2.70422 9.93886 2.70422H11.3155C12.9839 2.70422 13.5089 3.24089 14.1855 4.11589L15.5855 5.98256C15.8772 6.37922 15.8889 6.40256 16.4022 6.40256H19.1789C22.882 6.40256 24.294 7.40985 24.5598 10.542Z" fill="#FF9900"/>
</svg>
