<svg width="24" height="25" viewBox="0 0 24 25" fill="none" xmlns="http://www.w3.org/2000/svg">
<path d="M6.37 9.71916C2.29 10.0092 2.3 15.9191 6.37 16.2091H16.03C17.2 16.2191 18.33 15.7792 19.2 14.9892C22.06 12.4892 20.53 7.48914 16.76 7.00914C15.41 -1.13087 3.62001 1.95916 6.41001 9.71916" stroke="#212121" stroke-width="2" stroke-miterlimit="10" stroke-linecap="round" stroke-linejoin="round"/>
<path d="M12 16.209V19.209" stroke="#212121" stroke-width="2" stroke-miterlimit="10" stroke-linecap="round" stroke-linejoin="round"/>
<path d="M12 23.209C13.1046 23.209 14 22.3136 14 21.209C14 20.1044 13.1046 19.209 12 19.209C10.8954 19.209 10 20.1044 10 21.209C10 22.3136 10.8954 23.209 12 23.209Z" stroke="#212121" stroke-width="2" stroke-miterlimit="10" stroke-linecap="round" stroke-linejoin="round"/>
<path d="M18 21.209H14" stroke="#212121" stroke-width="2" stroke-miterlimit="10" stroke-linecap="round" stroke-linejoin="round"/>
<path d="M10 21.209H6" stroke="#212121" stroke-width="2" stroke-miterlimit="10" stroke-linecap="round" stroke-linejoin="round"/>
</svg>
